<svg xmlns="http://www.w3.org/2000/svg" version="1.1" xmlns:xlink="http://www.w3.org/1999/xlink" xmlns:svgjs="http://svgjs.com/svgjs" width="17" height="25"><svg width="17" height="25" viewBox="0 0 17 25" fill="none" xmlns="http://www.w3.org/2000/svg">
<g id="SvgjsG1004">
<path d="M15.66 22.9587C15.7954 22.8741 15.8757 22.7248 15.8757 22.5652V20.6715C15.8757 20.2601 15.377 20.0361 15.0475 20.2828C13.277 21.6089 11.0775 22.3943 8.695 22.3943C6.31257 22.3943 4.11306 21.609 2.34255 20.2829C2.01312 20.0362 1.51442 20.2601 1.51442 20.6716V22.5652C1.51442 22.7248 1.59473 22.8741 1.73014 22.9587C3.75049 24.2206 6.13806 24.9497 8.695 24.9497C11.252 24.9497 13.6396 24.2206 15.66 22.9587Z" fill="white"></path>
<path d="M15.66 22.9587C15.7954 22.8741 15.8757 22.7248 15.8757 22.5652V20.6715C15.8757 20.2601 15.377 20.0361 15.0475 20.2828C13.277 21.6089 11.0775 22.3943 8.695 22.3943C6.31257 22.3943 4.11306 21.609 2.34255 20.2829C2.01312 20.0362 1.51442 20.2601 1.51442 20.6716V22.5652C1.51442 22.7248 1.59473 22.8741 1.73014 22.9587C3.75049 24.2206 6.13806 24.9497 8.695 24.9497C11.252 24.9497 13.6396 24.2206 15.66 22.9587Z" fill="url(#paint0_radial_380_4108)"></path>
<path d="M15.66 22.9587C15.7954 22.8741 15.8757 22.7248 15.8757 22.5652V20.6715C15.8757 20.2601 15.377 20.0361 15.0475 20.2828C13.277 21.6089 11.0775 22.3943 8.695 22.3943C6.31257 22.3943 4.11306 21.609 2.34255 20.2829C2.01312 20.0362 1.51442 20.2601 1.51442 20.6716V22.5652C1.51442 22.7248 1.59473 22.8741 1.73014 22.9587C3.75049 24.2206 6.13806 24.9497 8.695 24.9497C11.252 24.9497 13.6396 24.2206 15.66 22.9587Z" fill="url(#paint1_radial_380_4108)"></path>
<path d="M4.58064 5.07702C0.879967 7.48874 -0.164014 12.4424 2.24884 16.1413C4.66169 19.8403 9.61768 20.8838 13.3184 18.472C17.019 16.0603 18.063 11.1067 15.6502 7.40772L15.6267 7.37176C15.0894 6.54811 14.1306 6.10117 13.1539 6.21918L12.2791 6.3249C11.9869 6.36021 11.7828 6.04297 11.9362 5.79189L12.3733 5.07647C12.8922 4.22721 12.8763 3.15543 12.3326 2.32186L11.6223 1.23302C11.434 0.944284 11.0471 0.862831 10.7582 1.05109L4.58064 5.07702Z" fill="white"></path>
<path d="M4.58064 5.07702C0.879967 7.48874 -0.164014 12.4424 2.24884 16.1413C4.66169 19.8403 9.61768 20.8838 13.3184 18.472C17.019 16.0603 18.063 11.1067 15.6502 7.40772L15.6267 7.37176C15.0894 6.54811 14.1306 6.10117 13.1539 6.21918L12.2791 6.3249C11.9869 6.36021 11.7828 6.04297 11.9362 5.79189L12.3733 5.07647C12.8922 4.22721 12.8763 3.15543 12.3326 2.32186L11.6223 1.23302C11.434 0.944284 11.0471 0.862831 10.7582 1.05109L4.58064 5.07702Z" fill="url(#paint2_radial_380_4108)"></path>
<path d="M4.58064 5.07702C0.879967 7.48874 -0.164014 12.4424 2.24884 16.1413C4.66169 19.8403 9.61768 20.8838 13.3184 18.472C17.019 16.0603 18.063 11.1067 15.6502 7.40772L15.6267 7.37176C15.0894 6.54811 14.1306 6.10117 13.1539 6.21918L12.2791 6.3249C11.9869 6.36021 11.7828 6.04297 11.9362 5.79189L12.3733 5.07647C12.8922 4.22721 12.8763 3.15543 12.3326 2.32186L11.6223 1.23302C11.434 0.944284 11.0471 0.862831 10.7582 1.05109L4.58064 5.07702Z" fill="url(#paint3_radial_380_4108)"></path>
</g>
<defs>
<radialGradient id="SvgjsRadialGradient1003" cx="0" cy="0" r="1" gradientUnits="userSpaceOnUse" gradientTransform="translate(1.82927 5.04422) rotate(54.2012) scale(29.4534 330.21)">
<stop stop-color="#E65695"></stop>
<stop offset="1" stop-color="#F7C8DC" stop-opacity="0"></stop>
</radialGradient>
<radialGradient id="SvgjsRadialGradient1002" cx="0" cy="0" r="1" gradientUnits="userSpaceOnUse" gradientTransform="translate(11.9098 7.11335) rotate(149.903) scale(17.0671 33.9615)">
<stop stop-color="#EF583F"></stop>
<stop offset="1" stop-color="#FEC8C2" stop-opacity="0"></stop>
</radialGradient>
<radialGradient id="SvgjsRadialGradient1001" cx="0" cy="0" r="1" gradientUnits="userSpaceOnUse" gradientTransform="translate(1.82927 5.04422) rotate(54.2012) scale(29.4534 330.21)">
<stop stop-color="#E65695"></stop>
<stop offset="1" stop-color="#F7C8DC" stop-opacity="0"></stop>
</radialGradient>
<radialGradient id="SvgjsRadialGradient1000" cx="0" cy="0" r="1" gradientUnits="userSpaceOnUse" gradientTransform="translate(11.9098 7.11335) rotate(149.903) scale(17.0671 33.9615)">
<stop stop-color="#EF583F"></stop>
<stop offset="1" stop-color="#FEC8C2" stop-opacity="0"></stop>
</radialGradient>
</defs>
</svg><style>@media (prefers-color-scheme: light) { :root { filter: none; } }
</style></svg>