<svg width="720" height="959" viewBox="0 0 720 959" fill="none" xmlns="http://www.w3.org/2000/svg">
<ellipse cx="135.202" cy="883.979" rx="48.3602" ry="13.3994" fill="#000F08"/>
<path d="M213.8 276.359L213.016 271.233L206.991 270.384L213.8 276.359Z" fill="#000F08"/>
<path d="M298.831 334.365L296.542 329.711L290.54 330.715L298.831 334.365Z" fill="#000F08"/>
<path d="M262.398 784.994C246.946 767.237 198.934 772.349 167.061 771.384C47.435 763.08 25.2919 723.819 17.4355 698.184C16.8275 694.608 16.5947 691.011 16.7209 687.407L15.9887 697.955C15.3396 707.305 17.0586 716.764 21.2149 725.165C32.991 748.967 55.7777 780.026 165.93 787.673C272.753 791.168 267.598 810.785 255.359 829.002C243.12 847.218 208.801 896.965 263.918 923.083C319.036 949.201 389.198 941.383 418.873 933.84C448.548 926.297 544.294 900.706 577.613 850.547C604.268 810.42 605.173 762.795 602.293 743.999C602.689 762.657 598.797 782.52 589.962 803.765C574.479 840.998 528.446 873.362 502.744 884.691C483.334 893.247 449.812 902.614 424.691 909.483C396.848 917.095 329.617 927.29 283.434 907.166C225.705 882.012 251.304 843.258 261.516 829.429C271.728 815.6 276.04 800.671 262.398 784.994Z" fill="black"/>
<path d="M551.522 643.015C465.347 561.107 318.617 541.695 205.27 560.966C108.379 577.439 32.8608 624.723 18.9783 673.405L16.9821 683.645L16.7209 687.407C16.5947 691.011 16.8275 694.608 17.4355 698.184C25.2919 723.819 47.435 763.08 167.061 771.384C198.934 772.349 246.946 767.237 262.398 784.994C276.04 800.671 271.728 815.6 261.516 829.429C251.304 843.258 225.705 882.012 283.434 907.166C329.617 927.29 396.848 917.095 424.691 909.483C449.812 902.614 483.334 893.247 502.744 884.691C528.446 873.362 574.479 840.998 589.962 803.765C598.797 782.52 602.689 762.657 602.293 743.999C601.482 705.791 582.688 672.638 551.522 643.015Z" fill="url(#paint0_linear_27_2571)"/>
<path d="M602.293 743.999C601.482 705.791 582.688 672.638 551.522 643.015C465.347 561.107 318.617 541.695 205.27 560.966C108.379 577.439 32.8608 624.723 18.9783 673.405M602.293 743.999C602.689 762.657 598.797 782.52 589.962 803.765C574.48 840.998 528.446 873.362 502.744 884.691C483.334 893.247 449.812 902.614 424.691 909.483C396.848 917.095 329.617 927.29 283.434 907.166C225.705 882.012 251.304 843.258 261.516 829.429C271.728 815.6 276.04 800.671 262.398 784.994C246.946 767.237 198.934 772.349 167.061 771.384C47.435 763.08 25.2919 723.819 17.4355 698.184C16.8275 694.608 16.5947 691.011 16.7209 687.407M602.293 743.999C605.173 762.795 604.268 810.42 577.613 850.547C544.294 900.706 448.548 926.297 418.873 933.84C389.198 941.383 319.036 949.202 263.918 923.083C208.801 896.965 243.12 847.218 255.359 829.002C267.598 810.785 272.753 791.168 165.93 787.673C55.7777 780.026 32.991 748.967 21.2149 725.165C17.0586 716.764 15.3396 707.305 15.9887 697.955L16.7209 687.407M16.9821 683.645L18.9783 673.405M16.9821 683.645L16.7209 687.407M16.9821 683.645V683.645ZM18.9783 673.405C17.6485 678.068 16.8842 682.744 16.7209 687.407" stroke="black" stroke-width="2.97315"/>
<path d="M16.7329 702.194L16.3458 692.34L19.2713 689.393L27.45 698.986L61.6851 725.861L93.0013 740.179L149.924 754.856L193.396 757.874L222.146 754.559L251.971 759.156L269.985 772.681L276.472 796.236L275.275 813.481L263.814 830.375L253.952 845.033L256.08 863.773L272.877 884.433L314.486 898.693L380.276 905.246L422.842 897.912L502.194 872.915L551.648 839.165L584.359 804.793L596.563 774.594L603.412 753.95L602.052 773.531L599.139 792.101L595.334 807.902L590.756 821.844L579.492 841.098L568.297 856.746L548.189 873.401L532.97 884.619L500.236 901.119L455.776 917.527L412.167 929.481L365.773 934.744L334.596 934.024L299.395 928.873L270.433 919.642L254.881 912.245L242.466 901.275L236.134 891.088L233.681 877.019L237.33 862.471L247.522 842.952L259.277 824.691L264.995 813.362L265.565 805.143L259.371 798.354L247.007 791.663L224.492 785.768L185.778 781.817L164.134 781.578L130.449 777.976L97.9826 772.333L72.338 763.406L57.2511 756.82L42.8951 747.426L30.2207 734.397L23.3155 723.198L19.2108 715.409L16.7329 702.194Z" fill="#D19F47"/>
<mask id="mask0_27_2571" style="mask-type:alpha" maskUnits="userSpaceOnUse" x="14" y="546" width="591" height="391">
<path d="M262.091 778.773C246.639 761.015 198.627 766.127 166.754 765.163C47.1278 756.858 24.9848 717.597 17.1284 691.962C16.5204 688.386 16.2876 684.79 16.4138 681.186L15.6816 691.733C15.0325 701.084 16.7514 710.542 20.9078 718.943C32.6839 742.746 55.4706 773.805 165.623 781.451C272.446 784.946 267.291 804.563 255.052 822.78C242.813 840.997 208.494 890.743 263.611 916.862C318.729 942.98 388.891 935.161 418.566 927.618C448.241 920.076 543.987 894.484 577.306 844.325C603.961 804.198 604.866 756.573 601.986 737.777C602.382 756.435 598.489 776.298 589.655 797.544C574.172 834.777 528.139 867.14 502.437 878.469C483.027 887.025 449.505 896.393 424.384 903.261C396.541 910.874 329.31 921.068 283.127 900.945C225.398 875.791 250.997 837.037 261.209 823.207C271.421 809.378 275.732 794.449 262.091 778.773Z" fill="black"/>
<path d="M551.215 636.793C465.04 554.885 318.31 535.473 204.963 554.744C108.072 571.218 32.5536 618.501 18.6712 667.183L16.675 677.423L16.4138 681.186C16.2876 684.79 16.5204 688.386 17.1284 691.962C24.9848 717.597 47.1278 756.858 166.754 765.163C198.627 766.127 246.639 761.015 262.091 778.773C275.732 794.449 271.421 809.378 261.209 823.207C250.997 837.037 225.398 875.791 283.127 900.945C329.31 921.068 396.541 910.874 424.384 903.261C449.505 896.393 483.027 887.025 502.437 878.469C528.139 867.14 574.172 834.777 589.655 797.544C598.489 776.298 602.382 756.435 601.986 737.777C601.175 699.57 582.381 666.416 551.215 636.793Z" fill="url(#paint1_linear_27_2571)"/>
<path d="M601.986 737.777C601.175 699.57 582.381 666.416 551.215 636.793C465.04 554.885 318.31 535.473 204.963 554.744C108.072 571.218 32.5536 618.501 18.6712 667.183M601.986 737.777C602.382 756.435 598.489 776.298 589.655 797.544C574.172 834.777 528.139 867.14 502.437 878.469C483.027 887.025 449.505 896.393 424.384 903.261C396.541 910.874 329.31 921.068 283.127 900.945C225.398 875.791 250.997 837.037 261.209 823.207C271.421 809.378 275.732 794.449 262.091 778.773C246.639 761.015 198.627 766.127 166.754 765.163C47.1278 756.858 24.9848 717.597 17.1284 691.962C16.5204 688.386 16.2876 684.79 16.4138 681.186M601.986 737.777C604.866 756.573 603.961 804.198 577.306 844.325C543.987 894.484 448.241 920.076 418.566 927.618C388.891 935.161 318.729 942.98 263.611 916.862C208.494 890.743 242.813 840.997 255.052 822.78C267.291 804.563 272.446 784.946 165.623 781.451C55.4706 773.805 32.6839 742.746 20.9078 718.943C16.7514 710.542 15.0325 701.084 15.6816 691.733L16.4138 681.186M16.675 677.423L18.6712 667.183M16.675 677.423L16.4138 681.186M16.675 677.423V677.423ZM18.6712 667.183C17.3413 671.846 16.5771 676.523 16.4138 681.186" stroke="black" stroke-width="2.97315"/>
</mask>
<g mask="url(#mask0_27_2571)">
<path d="M551.215 636.793C465.04 554.885 318.31 535.473 204.963 554.744C108.072 571.218 32.5536 618.501 18.6712 667.183L16.675 677.423L16.4138 681.186C16.2876 684.79 16.5204 688.386 17.1284 691.962C24.9848 717.597 47.1278 756.858 166.754 765.163C198.627 766.127 246.639 761.015 262.091 778.773C275.732 794.449 271.421 809.378 261.209 823.207C250.997 837.037 225.398 875.791 283.127 900.945C329.31 921.068 396.541 910.874 424.384 903.261C449.505 896.393 483.027 887.025 502.437 878.469C528.139 867.14 574.172 834.777 589.655 797.544C598.489 776.298 602.382 756.435 601.986 737.777C601.175 699.57 582.381 666.416 551.215 636.793Z" fill="url(#paint2_linear_27_2571)"/>
<path d="M261.209 823.207C271.421 809.378 275.732 794.449 262.091 778.773C246.639 761.015 198.627 766.127 166.754 765.163C47.1278 756.858 24.9848 717.597 17.1284 691.962C16.5204 688.386 16.2876 684.79 16.4138 681.186M261.209 823.207C250.997 837.037 225.398 875.791 283.127 900.945C329.31 921.068 396.541 910.874 424.384 903.261C449.505 896.393 483.027 887.025 502.437 878.469C528.139 867.14 574.172 834.777 589.655 797.544C598.489 776.298 602.382 756.435 601.986 737.777M261.209 823.207C273.448 804.991 272.446 784.946 165.623 781.451C55.4706 773.805 32.6839 742.746 20.9078 718.943C16.7514 710.542 15.0325 701.084 15.6816 691.733L16.4138 681.186M261.209 823.207C248.97 841.424 208.494 890.743 263.611 916.862C318.729 942.98 388.891 935.161 418.566 927.618C448.241 920.076 543.987 894.484 577.306 844.325C603.961 804.198 604.866 756.573 601.986 737.777M601.986 737.777C601.175 699.57 582.381 666.416 551.215 636.793C465.04 554.885 318.31 535.473 204.963 554.744C108.072 571.218 32.5536 618.501 18.6712 667.183M18.6712 667.183L16.675 677.423L16.4138 681.186M18.6712 667.183C17.3413 671.846 16.5771 676.523 16.4138 681.186" stroke="#000F08" stroke-width="2.97315"/>
<mask id="mask1_27_2571" style="mask-type:alpha" maskUnits="userSpaceOnUse" x="74" y="590" width="115" height="91">
<ellipse cx="131.685" cy="635.256" rx="57.1533" ry="44.9662" transform="rotate(-7.65063 131.685 635.256)" fill="#E94B38"/>
</mask>
<g mask="url(#mask1_27_2571)">
<ellipse cx="131.685" cy="635.256" rx="57.1533" ry="44.9662" transform="rotate(-7.65063 131.685 635.256)" fill="#A83426"/>
<ellipse cx="127.978" cy="636.133" rx="57.1533" ry="44.9662" transform="rotate(-7.65063 127.978 636.133)" fill="url(#paint3_radial_27_2571)"/>
<path d="M107.079 606.433C104.055 607.855 101.809 609.835 100.179 612.125C98.1105 615.03 95.1013 615.064 97.1039 612.114C99.0231 609.286 101.968 606.881 105.165 604.987C105.754 604.638 106.433 604.333 107.184 604.07C110.998 602.735 110.735 604.714 107.079 606.433Z" fill="white"/>
<path d="M138.779 686.603C155.723 684.327 170.738 676.965 181.235 666.428C191.742 655.881 198.087 641.67 196.035 626.393C193.982 611.115 184.112 599.082 171.195 591.682C158.289 584.288 141.864 581.15 124.92 583.426C107.975 585.702 92.9608 593.064 82.4636 603.601C71.9573 614.148 65.6119 628.359 67.6642 643.636C69.7164 658.914 79.587 670.947 92.504 678.347C105.41 685.741 121.835 688.879 138.779 686.603Z" stroke="black" stroke-width="20.8121"/>
</g>
<mask id="mask2_27_2571" style="mask-type:alpha" maskUnits="userSpaceOnUse" x="254" y="561" width="109" height="72">
<ellipse cx="53.4098" cy="36.5287" rx="53.4098" ry="36.5287" transform="matrix(0.993834 -0.110883 0.247634 0.968854 246.373 567.602)" fill="#E94B38"/>
</mask>
<g mask="url(#mask2_27_2571)">
<ellipse cx="53.4098" cy="36.5287" rx="53.4098" ry="36.5287" transform="matrix(0.993834 -0.110883 0.247634 0.968854 246.373 567.602)" fill="#37568B"/>
<ellipse cx="59.1585" cy="40.3598" rx="59.1585" ry="40.3598" transform="matrix(0.993834 -0.110883 0.247634 0.968854 232.559 563.25)" fill="url(#paint4_radial_27_2571)"/>
<path d="M320.945 638.76C336.466 636.337 349.679 629.939 358.339 621.036C366.96 612.175 371.718 599.976 367.557 586.681C363.397 573.385 351.802 563.739 338.696 558.269C325.53 552.772 309.73 550.903 294.209 553.326C278.687 555.749 265.475 562.146 256.814 571.049C248.194 579.911 243.435 592.109 247.596 605.405C251.757 618.701 263.352 628.347 276.457 633.817C289.624 639.313 305.423 641.182 320.945 638.76Z" stroke="black" stroke-width="20.8121"/>
</g>
<mask id="mask3_27_2571" style="mask-type:alpha" maskUnits="userSpaceOnUse" x="410" y="603" width="110" height="85">
<ellipse cx="54.4569" cy="41.8279" rx="54.4569" ry="41.8279" transform="matrix(0.994599 0.103792 -0.0801851 0.99678 414.099 597.865)" fill="#E94B38"/>
</mask>
<g mask="url(#mask3_27_2571)">
<ellipse cx="54.4569" cy="41.8279" rx="54.4569" ry="41.8279" transform="matrix(0.994599 0.103792 -0.0801851 0.99678 414.099 597.865)" fill="#33936D"/>
<ellipse cx="63.3382" cy="48.6496" rx="63.3382" ry="48.6496" transform="matrix(0.994599 0.103792 -0.0801851 0.99678 407.759 592.338)" fill="url(#paint5_radial_27_2571)"/>
<path d="M459.824 694.358C490.996 697.611 522.611 680.744 525.01 650.916C527.409 621.089 499.012 597.959 467.84 594.706C436.668 591.453 405.053 608.32 402.654 638.148C400.254 667.975 428.652 691.105 459.824 694.358Z" stroke="black" stroke-width="20.8121"/>
</g>
<g style="mix-blend-mode:multiply" opacity="0.2">
<path d="M597.606 850.984C607.911 803.438 613.688 755.929 589.582 712.311C522.929 591.706 374.382 535.185 249.625 534.004C142.98 532.995 49.1265 562.442 20.3202 619.724L0.0591668 652.092" stroke="#664006" stroke-width="32.3101" stroke-linecap="round"/>
</g>
<g style="mix-blend-mode:multiply" opacity="0.2">
<path d="M143.317 1003.18L217.548 483.424C215.455 340.271 199.596 225.276 172.437 207.456L156.994 192.053" stroke="#664006" stroke-width="32.3101" stroke-linecap="round"/>
</g>
<mask id="mask4_27_2571" style="mask-type:alpha" maskUnits="userSpaceOnUse" x="435" y="736" width="117" height="90">
<ellipse cx="57.979" cy="44.1235" rx="57.979" ry="44.1235" transform="matrix(0.994129 0.108201 -0.0755038 0.997146 439.134 730.727)" fill="#E94B38"/>
</mask>
<g mask="url(#mask4_27_2571)">
<ellipse cx="57.979" cy="44.1235" rx="57.979" ry="44.1235" transform="matrix(0.994129 0.108201 -0.0755038 0.997146 439.134 730.727)" fill="#B4752B"/>
<ellipse cx="61.2728" cy="46.6302" rx="61.2728" ry="46.6302" transform="matrix(0.994129 0.108201 -0.0755038 0.997146 437.679 729.618)" fill="url(#paint6_radial_27_2571)"/>
<path d="M489.562 831.151C506.693 833.016 522.999 829.6 535.542 822.065C548.083 814.532 557.437 802.423 558.596 787.118C559.755 771.814 552.373 757.883 541.168 747.765C529.962 737.645 514.435 730.765 497.305 728.901C480.174 727.036 463.868 730.452 451.325 737.986C438.784 745.52 429.43 757.629 428.271 772.934C427.112 788.238 434.494 802.169 445.699 812.287C456.905 822.407 472.432 829.287 489.562 831.151Z" stroke="black" stroke-width="20.8121"/>
</g>
<path d="M244.96 903.375C240.181 888.601 248.337 881.073 253.013 879.156L251.198 875.176L247.22 865.937L246.18 858.074L247.918 849.921L247.439 845.889L242.863 851.225C241.574 855.226 238.992 863.297 238.972 863.572C238.953 863.846 237.054 869.345 236.107 872.06L236.021 880.259L236.545 884.384L238.174 894.055L244.96 903.375Z" fill="#000F08"/>
<path fill-rule="evenodd" clip-rule="evenodd" d="M341.026 879.156C373.961 881.442 401.862 865.981 403.345 844.622C404.828 823.263 379.33 804.095 346.395 801.809C313.46 799.522 285.559 814.984 284.077 836.343C282.594 857.702 308.091 876.87 341.026 879.156ZM341.12 877.788C368.838 879.712 392.23 867.988 393.367 851.602C394.505 835.216 372.957 820.373 345.24 818.449C317.522 816.525 294.13 828.248 292.993 844.634C291.855 861.02 313.403 875.864 341.12 877.788Z" fill="#000F08"/>
<ellipse cx="343.181" cy="848.119" rx="50.308" ry="29.7409" transform="rotate(3.97105 343.181 848.119)" fill="#FAF0E1"/>
</g>
<path d="M17.8406 711.83L15.9893 694.749L23.3049 706.01L28.7751 716.511L35.5707 724.32C30.6618 726.51 30.3242 731.252 30.769 733.349L27.8574 729.731L23.6096 723.49L17.8406 711.83Z" fill="#000F08"/>
<mask id="mask5_27_2571" style="mask-type:alpha" maskUnits="userSpaceOnUse" x="105" y="471" width="119" height="396">
<path d="M157.806 473.697L221.251 482.652L171.25 836.91C168.777 854.43 152.57 866.629 135.05 864.156C117.53 861.683 105.332 845.476 107.805 827.956L157.806 473.697Z" fill="#3A3335" stroke="black" stroke-width="3.44122"/>
</mask>
<g mask="url(#mask5_27_2571)">
<path d="M156.342 471.753L223.195 481.189L172.954 837.151C170.348 855.612 153.271 868.465 134.81 865.859C116.349 863.254 103.495 846.176 106.101 827.715L156.342 471.753Z" fill="url(#paint7_linear_27_2571)"/>
<g style="mix-blend-mode:lighten">
<path d="M206.731 478.361L243.579 483.562L186.425 888.5C184.989 898.675 175.576 905.76 165.401 904.323C155.226 902.887 148.141 893.474 149.577 883.299L206.731 478.361Z" fill="#4F4649" fill-opacity="0.8"/>
</g>
<path d="M157.806 473.697L221.251 482.652L171.25 836.91C168.777 854.43 152.57 866.629 135.05 864.156C117.53 861.683 105.332 845.476 107.805 827.956L157.806 473.697Z" stroke="#000F08" stroke-width="3.44122"/>
<ellipse cx="199.531" cy="539.624" rx="73.7522" ry="26.508" transform="rotate(17.0473 199.531 539.624)" fill="#000F08"/>
</g>
<mask id="mask6_27_2571" style="mask-type:alpha" maskUnits="userSpaceOnUse" x="124" y="467" width="119" height="77">
<path d="M127.28 494.779C129.353 478.758 144.02 467.45 160.041 469.522L215.478 476.693C231.499 478.765 242.807 493.432 240.735 509.453L239.781 516.829C237.959 530.918 225.783 541.486 211.551 541.486C189.776 541.486 167.871 538.663 146.825 533.088C133.272 529.498 124.482 516.415 126.28 502.511L127.28 494.779Z" fill="white" stroke="black" stroke-width="3.44122"/>
</mask>
<g mask="url(#mask6_27_2571)">
<path d="M127.28 494.779C129.353 478.758 144.02 467.45 160.041 469.522L215.478 476.693C231.499 478.765 242.807 493.432 240.735 509.453L239.781 516.829C237.959 530.918 225.783 541.486 211.551 541.486C189.776 541.486 167.871 538.663 146.825 533.088C133.272 529.498 124.482 516.415 126.28 502.511L127.28 494.779Z" fill="white" stroke="#000F08" stroke-width="3.44122"/>
<ellipse cx="191.71" cy="463.843" rx="84.591" ry="55.5371" transform="rotate(15.5786 191.71 463.843)" fill="#000F08"/>
</g>
<mask id="mask7_27_2571" style="mask-type:alpha" maskUnits="userSpaceOnUse" x="82" y="277" width="235" height="235">
<circle cx="199.531" cy="394.693" r="115.281" transform="rotate(-8.96098 199.531 394.693)" fill="#D9D9D9" stroke="black" stroke-width="3.44122"/>
</mask>
<g mask="url(#mask7_27_2571)">
<circle cx="199.531" cy="394.692" r="117.001" transform="rotate(62.0552 199.531 394.692)" fill="#E3E3E3"/>
<circle cx="192.163" cy="403.674" r="117.001" transform="rotate(62.0552 192.163 403.674)" fill="#CECECE"/>
<circle cx="199.531" cy="394.693" r="115.281" transform="rotate(-8.96098 199.531 394.693)" stroke="#000F08" stroke-width="3.44122"/>
<path d="M141.637 430.056C151.921 432.153 162.351 427.402 170.865 418.515C179.396 409.612 186.192 396.393 189.332 380.986C192.473 365.579 191.393 350.755 187.028 339.223C182.671 327.713 174.933 319.259 164.649 317.162C154.365 315.066 143.935 319.817 135.421 328.703C126.89 337.607 120.094 350.826 116.954 366.233C113.813 381.64 114.893 396.464 119.258 407.996C123.615 419.506 131.353 427.96 141.637 430.056Z" fill="white" stroke="#000F08" stroke-width="3.14968"/>
<mask id="mask8_27_2571" style="mask-type:alpha" maskUnits="userSpaceOnUse" x="116" y="318" width="74" height="111">
<ellipse cx="153.143" cy="373.609" rx="35.3587" ry="56.0328" transform="rotate(11.5209 153.143 373.609)" fill="#D9D9D9"/>
</mask>
<g mask="url(#mask8_27_2571)">
<ellipse cx="150.006" cy="371.516" rx="35.3587" ry="56.0328" transform="rotate(11.5209 150.006 371.516)" fill="#ECECEC"/>
<ellipse cx="145.391" cy="371.048" rx="37.0272" ry="61.9271" transform="rotate(11.5209 145.391 371.048)" fill="white"/>
<ellipse cx="130.771" cy="369.05" rx="35.3587" ry="56.0328" transform="rotate(11.5209 130.771 369.05)" fill="#000F08"/>
<path d="M149.468 373.525L168.723 365.485L175.297 377.84L167.574 387.851L149.468 373.525Z" fill="white"/>
</g>
<path d="M216.035 442.472C226.319 444.569 236.749 439.818 245.263 430.931C253.794 422.028 260.59 408.809 263.73 393.402C266.871 377.995 265.791 363.171 261.426 351.639C257.069 340.129 249.331 331.675 239.047 329.579C228.763 327.482 218.333 332.233 209.819 341.119C201.288 350.023 194.492 363.242 191.352 378.649C188.211 394.056 189.291 408.88 193.656 420.412C198.013 431.922 205.751 440.376 216.035 442.472Z" fill="white" stroke="#000F08" stroke-width="3.14968"/>
<mask id="mask9_27_2571" style="mask-type:alpha" maskUnits="userSpaceOnUse" x="191" y="330" width="73" height="112">
<ellipse cx="227.541" cy="386.025" rx="35.3587" ry="56.0328" transform="rotate(11.5209 227.541 386.025)" fill="#D9D9D9"/>
</mask>
<g mask="url(#mask9_27_2571)">
<ellipse cx="224.404" cy="383.932" rx="35.3587" ry="56.0328" transform="rotate(11.5209 224.404 383.932)" fill="#ECECEC"/>
<ellipse cx="219.789" cy="383.464" rx="37.0272" ry="61.9271" transform="rotate(11.5209 219.789 383.464)" fill="white"/>
<ellipse cx="205.169" cy="381.466" rx="35.3587" ry="56.0328" transform="rotate(11.5209 205.169 381.466)" fill="#000F08"/>
<path d="M223.865 385.941L243.12 377.901L249.695 390.256L241.971 400.267L223.865 385.941Z" fill="white"/>
</g>
<ellipse cx="178.265" cy="441.264" rx="22.1625" ry="20.2038" transform="rotate(10.7875 178.265 441.264)" fill="#000F08"/>
<mask id="mask10_27_2571" style="mask-type:alpha" maskUnits="userSpaceOnUse" x="156" y="420" width="45" height="39">
<path d="M198.697 443.443C197.007 452.312 186.829 458.322 175.429 456.149C164.028 453.977 156.773 444.646 158.463 435.777C160.153 426.909 170.33 420.899 181.731 423.072C193.132 425.244 200.387 434.575 198.697 443.443Z" fill="#EE7C6C" stroke="black" stroke-width="3.3673"/>
</mask>
<g mask="url(#mask10_27_2571)">
<ellipse cx="178.58" cy="439.61" rx="22.1625" ry="18.5201" transform="rotate(10.7875 178.58 439.61)" fill="#EEC26C"/>
<ellipse cx="176.69" cy="449.534" rx="22.1625" ry="18.5201" transform="rotate(10.7875 176.69 449.534)" fill="#D6A13B"/>
<path d="M198.697 443.443C197.007 452.312 186.829 458.322 175.429 456.149C164.028 453.977 156.773 444.646 158.463 435.777C160.153 426.909 170.33 420.899 181.731 423.072C193.132 425.244 200.387 434.575 198.697 443.443Z" stroke="#000F08" stroke-width="3.3673"/>
</g>
<path d="M213.117 475.191C210.484 480.153 206.478 484.253 201.578 486.999C196.677 489.746 191.09 491.023 185.483 490.678C179.876 490.333 174.487 488.381 169.959 485.056C165.432 481.73 161.959 477.17 159.954 471.923" stroke="#000F08" stroke-width="3.44122" stroke-linecap="round"/>
<path d="M210.326 472.729C210.967 472.29 211.72 472.046 212.496 472.024C213.272 472.003 214.038 472.205 214.702 472.607C215.367 473.009 215.901 473.594 216.241 474.292C216.582 474.99 216.715 475.771 216.623 476.542" stroke="#000F08" stroke-width="3.44122" stroke-linecap="round"/>
<path d="M156.34 472.653C156.422 471.881 156.724 471.149 157.211 470.544C157.697 469.939 158.348 469.487 159.085 469.242C159.822 468.997 160.613 468.97 161.365 469.163C162.117 469.356 162.798 469.761 163.326 470.331" stroke="#000F08" stroke-width="3.44122" stroke-linecap="round"/>
</g>
<mask id="mask11_27_2571" style="mask-type:alpha" maskUnits="userSpaceOnUse" x="132" y="30" width="216" height="272">
<path d="M335.442 291.849C331.901 305.693 283.539 305.278 227.423 290.924C171.307 276.569 128.686 253.71 132.228 239.866C135.769 226.022 146.252 1.53033 308.454 33.3404C373.236 23.2874 338.984 278.005 335.442 291.849Z" fill="#000F08"/>
</mask>
<g mask="url(#mask11_27_2571)">
<path d="M320.812 292.975C320.24 295.211 317.852 297.35 312.896 298.946C308.043 300.509 301.255 301.368 292.949 301.45C276.365 301.614 254.158 298.681 230.289 292.575C206.42 286.469 185.532 278.379 171.064 270.271C163.818 266.211 158.276 262.198 154.77 258.497C151.189 254.717 150.121 251.694 150.693 249.458C151.265 247.223 153.653 245.084 158.609 243.488C163.462 241.925 170.25 241.066 178.556 240.984C195.14 240.82 217.347 243.753 241.216 249.859C265.085 255.964 285.973 264.055 300.441 272.162C307.687 276.223 313.229 280.236 316.735 283.937C320.316 287.717 321.384 290.74 320.812 292.975Z" fill="#000F08" stroke="#000F08" stroke-width="3.65464"/>
<mask id="mask12_27_2571" style="mask-type:alpha" maskUnits="userSpaceOnUse" x="152" y="53" width="184" height="263">
<path d="M321.62 181.719C354.749 236.454 313.009 301.313 280.494 314.043L178.609 286.918C167.635 266.633 146.214 213.276 156.526 164.602C171.031 96.1403 229.818 66.3082 277.274 55.7734C293.816 52.1012 304.025 71.4876 299.938 89.0175C294.813 111.003 296.871 140.829 321.62 181.719Z" fill="#D9D9D9" stroke="black" stroke-width="3.44122"/>
</mask>
<g mask="url(#mask12_27_2571)">
<path d="M321.62 181.719C354.749 236.454 313.009 301.313 280.494 314.043L178.609 286.918C167.635 266.633 146.214 213.276 156.526 164.602C171.031 96.1403 229.818 66.3082 277.274 55.7734C293.816 52.1012 304.025 71.4876 299.938 89.0175C294.813 111.003 296.871 140.829 321.62 181.719Z" fill="#D89F39"/>
<path d="M321.235 176.877C351.929 232.932 307.072 295.446 273.876 306.542L172.951 274.636C162.883 253.925 143.866 199.805 156.457 151.878C174.173 84.4443 234.538 57.6057 282.624 49.4239C299.369 46.5747 308.654 66.3957 303.751 83.6814C297.62 105.301 298.333 135.053 321.235 176.877Z" fill="url(#paint8_linear_27_2571)"/>
<path d="M-107.167 60.1759C-92.5645 66.4554 -49.3753 91.2348 -19.551 97.8529C10.2734 104.471 41.9546 93.2664 71.779 99.8845C101.603 106.503 129.571 130.943 159.395 137.562C189.219 144.18 220.901 132.975 250.725 139.593C280.549 146.211 308.517 170.652 338.341 177.27C368.166 183.888 399.847 172.684 429.671 179.302C459.496 185.92 487.463 210.361 517.287 216.979C547.112 223.597 593.396 218.672 608.617 219.01" fill="#F8B265"/>
<path d="M-107.167 60.1759C-92.5645 66.4554 -49.3753 91.2348 -19.551 97.8529C10.2734 104.471 41.9546 93.2664 71.779 99.8845C101.603 106.503 129.571 130.943 159.395 137.562C189.219 144.18 220.901 132.975 250.725 139.593C280.549 146.211 308.517 170.652 338.341 177.27C368.166 183.888 399.847 172.684 429.671 179.302C459.496 185.92 487.463 210.361 517.287 216.979C547.112 223.597 593.396 218.672 608.617 219.01L619.666 112.965L-96.1187 -45.8691L-107.167 60.1759Z" fill="#F8B265"/>
<path d="M-171.153 90.6106C-155.179 97.3501 -106.013 131.307 -75.3077 131.048C-44.6027 130.788 -17.6278 89.3117 13.0772 89.0519C43.7822 88.7921 78.2174 129.749 108.922 129.489C139.627 129.229 166.602 87.7529 197.307 87.4931C228.012 87.2333 262.448 128.19 293.153 127.93C323.858 127.67 350.832 86.1942 381.537 85.9344C412.242 85.6746 446.678 126.631 477.383 126.371C508.088 126.112 551.037 91.3749 565.768 84.3756" fill="#EA5847"/>
<path d="M-171.153 90.6106C-155.179 97.3501 -106.013 131.307 -75.3077 131.048C-44.6027 130.788 -17.6278 89.3117 13.0772 89.0519C43.7822 88.7921 78.2174 129.749 108.922 129.489C139.627 129.229 166.602 87.7529 197.307 87.4931C228.012 87.2333 262.448 128.19 293.153 127.93C323.858 127.67 350.832 86.1942 381.537 85.9344C412.242 85.6746 446.678 126.631 477.383 126.371C508.088 126.112 551.037 91.3749 565.768 84.3756L543.573 -160.862L-193.348 -154.627L-171.153 90.6106Z" fill="#EA5847"/>
<path d="M321.62 181.719C354.749 236.454 313.009 301.313 280.494 314.043L178.609 286.918C167.635 266.633 146.214 213.276 156.526 164.602C171.031 96.1403 229.818 66.3082 277.274 55.7734C293.816 52.1012 304.025 71.4876 299.938 89.0175C294.813 111.003 296.871 140.829 321.62 181.719Z" stroke="#000F08" stroke-width="3.56362"/>
<g style="mix-blend-mode:multiply" opacity="0.13">
<path d="M189.815 275.465L154.591 271.295C146.124 271.375 126.724 210.463 118.796 114.423C110.867 18.3825 192.086 8.45155 233.686 15.4911C300.455 13.9589 406.512 20.8288 296.593 60.5665C186.674 100.304 182.151 236.032 189.815 275.465Z" fill="#221006"/>
</g>
</g>
<path d="M173.231 258.499L176.251 268.041L180.617 263.961L173.188 244.375L169.041 231.4L165.937 215.099L166.574 223.833C167.434 235.608 169.668 247.243 173.231 258.499Z" fill="#000F08"/>
<path d="M210.432 297.822L211.192 300.837L218.875 297.792L211.434 276.928C209.124 267.694 207.492 258.304 206.553 248.833L206.33 246.589L205.997 253.871C205.318 268.659 206.813 283.467 210.432 297.822Z" fill="#000F08"/>
<path d="M267.981 269.69L267.141 272.526C263.411 285.125 257.662 297.035 250.12 307.792L244.634 303.512L256.047 290.357C260.295 284.273 264.047 277.857 267.267 271.171L267.981 269.69Z" fill="#000F08"/>
<path d="M290.002 292.488L300.11 283.945C303.603 280.046 306.591 275.722 309.002 271.075L309.159 270.772C307.481 279.717 303.282 288.124 297.191 294.885L290.002 292.488Z" fill="#000F08"/>
</g>
<mask id="mask13_27_2571" style="mask-type:alpha" maskUnits="userSpaceOnUse" x="135" y="246" width="190" height="101">
<path d="M138.364 297.248L149.108 250.712C149.579 248.671 151.773 247.531 153.418 248.827C159.527 253.64 164.365 263.579 225.321 279.713C281.137 294.487 303.107 293.958 319.119 292.195C321.724 291.908 323.71 294.485 322.733 296.917L304.024 343.479L294.661 332.853C255.655 288.584 192.696 274.241 138.364 297.248Z" fill="#D9D9D9" stroke="black" stroke-width="3.44122" stroke-linecap="round"/>
</mask>
<g mask="url(#mask13_27_2571)">
<path d="M138.364 297.248L149.108 250.712C149.579 248.671 151.773 247.531 153.418 248.827C159.527 253.64 164.365 263.579 225.321 279.713C281.137 294.487 303.107 293.958 319.119 292.195C321.724 291.908 323.71 294.485 322.733 296.917L304.024 343.479L294.661 332.853C255.655 288.584 192.696 274.241 138.364 297.248Z" fill="#CECECE"/>
<path d="M220.824 274.083L329.26 287.788L311.542 345.309L254.076 302.07L220.824 274.083Z" fill="#E3E3E3"/>
<path d="M138.364 297.248L149.108 250.712C149.579 248.671 151.773 247.531 153.418 248.827C159.527 253.64 164.365 263.579 225.321 279.713C281.137 294.487 303.107 293.958 319.119 292.195C321.724 291.908 323.71 294.485 322.733 296.917L304.024 343.479L294.661 332.853C255.655 288.584 192.696 274.241 138.364 297.248Z" stroke="#000F08" stroke-width="3.44122" stroke-linecap="round"/>
</g>
<path d="M502.365 750.255C487.672 749.043 471.087 754.106 461.844 757.511C459.042 758.543 457.559 756.597 460.047 754.948C467.947 749.711 482.642 744.822 494.274 745.996C497.709 746.343 500.84 746.904 503.659 747.609C507.44 748.554 506.249 750.576 502.365 750.255Z" fill="white"/>
<path d="M458.794 613.744C443.034 615.216 433.019 623.775 427.792 629.721C425.868 631.909 424.171 631.195 425.66 628.691C429.61 622.051 438.091 614.014 446.948 612.669C451.576 611.966 455.695 611.635 459.203 611.624C462.698 611.613 462.273 613.419 458.794 613.744Z" fill="white"/>
<path d="M290.451 572.697C283.444 573.997 279.062 577.541 276.49 582.045C274.696 585.187 270.958 585.365 272.51 582.097C274.585 577.727 278.865 574.305 283.632 571.87C285.46 570.936 288.01 570.42 290.944 570.251C295.019 570.015 294.464 571.952 290.451 572.697Z" fill="white"/>
<defs>
<linearGradient id="paint0_linear_27_2571" x1="321.979" y1="555.17" x2="310.645" y2="912.754" gradientUnits="userSpaceOnUse">
<stop stop-color="#C16800"/>
<stop offset="1" stop-color="#CB8C43"/>
</linearGradient>
<linearGradient id="paint1_linear_27_2571" x1="321.672" y1="548.948" x2="310.338" y2="906.533" gradientUnits="userSpaceOnUse">
<stop stop-color="#C16800"/>
<stop offset="1" stop-color="#CB8C43"/>
</linearGradient>
<linearGradient id="paint2_linear_27_2571" x1="321.672" y1="548.948" x2="310.338" y2="906.533" gradientUnits="userSpaceOnUse">
<stop stop-color="#E8B946"/>
<stop offset="1" stop-color="#FBC84C"/>
</linearGradient>
<radialGradient id="paint3_radial_27_2571" cx="0" cy="0" r="1" gradientUnits="userSpaceOnUse" gradientTransform="translate(112.83 612.603) rotate(70.3267) scale(50.1862 63.7881)">
<stop stop-color="#F7614F"/>
<stop offset="1" stop-color="#BF3A2A"/>
</radialGradient>
<radialGradient id="paint4_radial_27_2571" cx="0" cy="0" r="1" gradientUnits="userSpaceOnUse" gradientTransform="translate(46.0509 28.3086) rotate(37.4602) scale(78.3663 129.851)">
<stop offset="0.046875" stop-color="#6085C7"/>
<stop offset="1" stop-color="#234C94"/>
</radialGradient>
<radialGradient id="paint5_radial_27_2571" cx="0" cy="0" r="1" gradientUnits="userSpaceOnUse" gradientTransform="translate(33.2178 27.7463) rotate(41.428) scale(76.1461 101.468)">
<stop stop-color="#6BDCAF"/>
<stop offset="1" stop-color="#4BAC86"/>
</radialGradient>
<radialGradient id="paint6_radial_27_2571" cx="0" cy="0" r="1" gradientUnits="userSpaceOnUse" gradientTransform="translate(48.9475 18.311) rotate(57.6122) scale(75.7625 102.51)">
<stop stop-color="#FCBC71"/>
<stop offset="1" stop-color="#E98D38"/>
</radialGradient>
<linearGradient id="paint7_linear_27_2571" x1="181.047" y1="535.861" x2="134.81" y2="865.859" gradientUnits="userSpaceOnUse">
<stop stop-color="#3A3335"/>
<stop offset="1" stop-color="#494445"/>
</linearGradient>
<linearGradient id="paint8_linear_27_2571" x1="223.146" y1="284.033" x2="262.9" y2="144.063" gradientUnits="userSpaceOnUse">
<stop stop-color="#FFD74A"/>
<stop offset="0.0001" stop-color="#F5B440"/>
<stop offset="1" stop-color="#FFDA56"/>
</linearGradient>
</defs>
</svg>
