<svg width="424" height="424" viewBox="0 0 424 424" fill="none" xmlns="http://www.w3.org/2000/svg">
<path d="M141.276 379.977C143.124 365.696 156.145 355.699 170.426 357.548L216.966 363.596C231.247 365.444 241.244 378.465 239.396 392.747L238.556 398.963C236.96 411.564 226.039 420.973 213.438 420.973C195.04 420.973 176.475 418.621 158.665 413.832C146.568 410.64 138.755 398.963 140.352 386.53L141.276 379.977Z" fill="white"/>
<path fill-rule="evenodd" clip-rule="evenodd" d="M217.041 366.665L169.185 360.392C156.204 358.674 144.261 367.954 142.617 381.187L141.752 387.975C140.281 399.403 147.377 410.144 158.367 413.065C176.367 417.877 195.146 420.369 213.839 420.369C225.348 420.369 235.214 411.691 236.685 400.09L237.55 393.646C239.281 380.413 230.108 368.384 217.041 366.665ZM169.617 357.385C154.992 355.495 141.579 365.978 139.675 380.757L138.809 387.545C137.165 400.434 145.213 412.636 157.588 415.901C175.848 420.799 194.887 423.291 213.839 423.291C226.82 423.291 237.983 413.495 239.627 400.434L240.493 393.99C242.397 379.124 232.098 365.548 217.387 363.658L169.617 357.385Z" fill="#000F08"/>
<path d="M235.866 390.639C241.109 388.92 246.351 386.686 251.422 384.022C257.008 381.015 262.25 377.664 266.977 373.797C278.322 364.689 287.604 353.346 294.135 340.371C300.753 327.139 304.448 312.531 304.878 297.58C305.05 291.651 304.62 285.55 303.675 279.449C302.815 273.864 301.44 268.537 299.721 263.295C298.003 258.054 295.768 252.984 293.104 248C290.182 242.501 286.83 237.431 283.135 232.705C273.939 221.105 262.25 211.653 249.015 205.123C236.038 198.678 221.685 195.069 207.161 194.64C201.059 194.468 194.871 194.898 188.597 195.843C182.925 196.702 177.425 198.077 172.182 199.881C167.112 201.6 162.041 203.748 157.142 206.412C151.728 209.247 146.657 212.598 142.016 216.207C130.328 225.487 120.789 237.173 114.171 250.492C107.725 263.467 104.116 277.817 103.772 292.424C103.6 298.525 104.03 304.626 104.975 310.899C105.835 316.484 107.21 321.897 108.929 327.139C110.647 332.294 112.882 337.364 115.46 342.348C118.382 347.847 121.734 353.003 125.515 357.729C134.625 369.157 146.142 378.523 159.205 385.053C172.44 391.67 187.05 395.365 202.005 395.708C207.935 395.88 213.951 395.45 220.053 394.505C225.467 393.56 230.795 392.271 235.866 390.639Z" fill="#E3E3E3"/>
<path d="M123.661 235.111C131.22 226.776 140.326 219.644 150.806 214.059C199.857 188.023 260.676 206.67 286.705 255.734C305.432 291.05 301.051 332.38 278.802 362.541C263.941 379.039 243.496 390.725 219.872 394.419C165.066 403.098 113.61 365.634 104.934 310.813C100.639 282.972 108.112 256.077 123.661 235.111Z" fill="#CECECE"/>
<path fill-rule="evenodd" clip-rule="evenodd" d="M220.243 395.536C275.714 386.858 313.618 335.13 304.791 280.137C296.051 225.058 243.954 187.422 188.569 196.186C133.098 204.865 95.1939 256.507 104.021 311.586C112.761 366.665 164.771 404.301 220.243 395.536ZM301.849 280.566C310.33 334.013 273.551 384.194 219.724 392.615C165.896 401.036 115.357 364.517 106.877 311.07C98.3958 257.624 135.175 207.443 189.002 199.022C242.829 190.687 293.368 227.12 301.849 280.566Z" fill="#000F08"/>
<path d="M153.521 325.506C162.348 327.311 171.435 323.272 178.79 315.625C186.146 307.977 192.031 296.635 194.714 283.402C197.396 270.169 196.531 257.452 192.723 247.571C188.916 237.689 182.252 230.471 173.425 228.667C164.598 226.862 155.511 230.901 148.156 238.548C140.8 246.196 134.915 257.538 132.232 270.771C129.55 284.003 130.415 296.721 134.223 306.602C137.944 316.398 144.608 323.702 153.521 325.506Z" fill="white" stroke="#000F08" stroke-width="2.5778"/>
<path d="M151.098 322.413C167.627 325.764 185.454 307.376 190.733 281.34C195.06 260.202 189.868 240.525 178.964 232.018C177.146 230.987 175.242 230.299 173.165 229.87C156.637 226.519 138.809 244.907 133.531 270.943C129.204 292.081 134.396 311.758 145.3 320.265C147.031 321.296 149.021 321.983 151.098 322.413Z" fill="#ECECEC"/>
<path d="M161.31 324.303C173.338 317.773 183.983 301.619 188.223 281.168C191.944 263.123 189.694 246.024 183.204 235.025C180.348 232.448 176.973 230.643 173.252 229.87C156.723 226.519 138.896 244.907 133.617 270.943C128.252 296.978 137.338 320.866 153.954 324.217C156.29 324.733 158.8 324.733 161.31 324.303Z" fill="white"/>
<path d="M158.454 276.958L173.512 270.685C175.069 253.328 170.223 237.861 161.137 230.385C148.069 234.338 135.954 250.234 131.627 270.943C127.386 291.651 132.233 310.985 142.79 319.749C154.3 316.312 165.117 303.509 170.396 286.409L158.454 276.958Z" fill="#000F08"/>
<path d="M217.993 335.989C226.82 337.794 235.906 333.755 243.262 326.108C250.618 318.46 256.502 307.118 259.185 293.885C261.868 280.652 261.003 267.935 257.195 258.054C253.387 248.172 246.724 240.954 237.897 239.15C229.07 237.345 219.983 241.384 212.627 249.031C205.271 256.679 199.387 268.021 196.704 281.254C194.021 294.487 194.887 307.204 198.694 317.085C202.416 326.967 209.079 334.185 217.993 335.989Z" fill="white" stroke="#000F08" stroke-width="2.5778"/>
<path d="M215.483 332.982C232.012 336.333 249.839 317.944 255.118 291.909C259.445 270.771 254.253 251.093 243.349 242.587C241.531 241.556 239.627 240.868 237.55 240.439C221.022 237.087 203.194 255.476 197.916 281.512C193.589 302.65 198.781 322.327 209.685 330.833C211.502 331.779 213.493 332.552 215.483 332.982Z" fill="#ECECEC"/>
<path d="M225.695 334.872C237.724 328.342 248.368 312.187 252.608 291.737C256.329 273.692 254.079 256.593 247.589 245.594C244.733 243.016 241.358 241.212 237.637 240.439C221.108 237.087 203.281 255.476 198.002 281.512C192.637 307.547 201.723 331.435 218.339 334.786C220.762 335.302 223.272 335.302 225.695 334.872Z" fill="white"/>
<path d="M223.358 287.526L238.416 281.254C239.974 263.897 235.127 248.43 226.041 240.954C212.973 244.907 200.858 260.803 196.531 281.512C192.291 302.22 197.137 321.553 207.695 330.318C219.204 326.881 230.022 314.078 235.301 296.978L223.358 287.526Z" fill="#000F08"/>
<path d="M204.029 338.758C205.836 329.341 198.852 320.109 188.43 318.137C178.007 316.164 168.093 322.199 166.286 331.616C164.479 341.032 171.463 350.264 181.885 352.237C192.308 354.209 202.222 348.174 204.029 338.758Z" fill="#000F08"/>
<path d="M182.512 349.394C192.896 351.37 202.675 345.957 204.32 337.364C205.964 328.771 198.868 320.179 188.483 318.202C178.098 316.226 168.319 321.639 166.675 330.232C164.944 338.825 172.04 347.417 182.512 349.394Z" fill="#EEC26C"/>
<path d="M166.502 334.614C169.964 328.514 178.185 325.077 186.839 326.709C195.493 328.342 201.81 334.528 202.762 341.489C199.3 347.589 191.079 351.026 182.425 349.394C173.858 347.761 167.541 341.574 166.502 334.614Z" fill="#D6A13B"/>
<path fill-rule="evenodd" clip-rule="evenodd" d="M183.031 346.558C192.377 348.363 200.166 343.379 201.464 336.763C202.762 330.146 197.31 322.671 187.964 320.952C178.617 319.148 170.829 324.131 169.531 330.748C168.233 337.364 173.685 344.754 183.031 346.558ZM182.512 349.394C192.896 351.37 202.675 345.957 204.32 337.364C205.964 328.771 198.868 320.093 188.483 318.202C178.098 316.226 168.319 321.639 166.675 330.232C164.944 338.825 172.04 347.417 182.512 349.394Z" fill="#000F08"/>
<path fill-rule="evenodd" clip-rule="evenodd" d="M216.089 363.056C216.781 363.4 217.127 364.345 216.695 365.032C214.272 369.587 210.637 373.281 206.137 375.773C201.637 378.265 196.531 379.468 191.425 379.124C186.319 378.781 181.387 377.062 177.233 373.969C173.079 370.961 169.877 366.837 168.06 362.025C167.8 361.252 168.146 360.392 168.925 360.135C169.704 359.877 170.569 360.221 170.829 360.994C172.473 365.204 175.329 368.899 178.964 371.649C182.685 374.313 187.012 375.945 191.598 376.203C196.185 376.461 200.685 375.43 204.666 373.195C208.647 370.961 211.935 367.696 214.098 363.658C214.445 362.884 215.31 362.627 216.089 363.056Z" fill="#000F08"/>
<path fill-rule="evenodd" clip-rule="evenodd" d="M211.762 363.056C211.329 362.369 211.502 361.423 212.108 360.994C212.887 360.478 213.839 360.135 214.791 360.135C215.743 360.135 216.695 360.392 217.474 360.822C218.252 361.338 218.945 362.025 219.377 362.884C219.81 363.744 219.983 364.689 219.81 365.634C219.724 366.407 218.945 367.009 218.166 366.923C217.387 366.837 216.781 366.064 216.868 365.29C216.954 364.946 216.868 364.517 216.695 364.173C216.522 363.829 216.262 363.572 215.916 363.314C215.57 363.142 215.224 363.056 214.791 363.056C214.445 363.056 214.012 363.228 213.752 363.4C213.147 363.915 212.195 363.744 211.762 363.056Z" fill="#000F08"/>
<path fill-rule="evenodd" clip-rule="evenodd" d="M166.069 363.572C165.29 363.486 164.685 362.798 164.771 361.939C164.858 360.994 165.204 360.135 165.81 359.361C166.415 358.588 167.194 358.072 168.146 357.729C169.098 357.385 170.05 357.385 171.002 357.643C171.954 357.901 172.733 358.416 173.425 359.103C173.944 359.705 173.944 360.65 173.339 361.166C172.733 361.681 171.781 361.681 171.262 361.08C171.002 360.822 170.656 360.564 170.31 360.478C169.964 360.392 169.531 360.392 169.185 360.478C168.839 360.564 168.492 360.822 168.233 361.08C167.973 361.338 167.8 361.767 167.8 362.111C167.627 363.142 166.848 363.658 166.069 363.572Z" fill="#000F08"/>
<path d="M308.686 207.185C308.253 208.989 306.176 210.794 301.936 212.083C297.782 213.372 291.897 214.059 284.714 214.059C270.349 214.059 251.137 211.481 230.541 206.24C209.858 200.998 191.771 194.124 179.223 187.25C172.906 183.813 168.146 180.462 165.031 177.282C161.915 174.103 160.964 171.611 161.483 169.721C161.915 167.916 163.992 166.112 168.233 164.823C172.387 163.534 178.271 162.847 185.454 162.847C199.82 162.847 219.031 165.425 239.627 170.666C260.31 175.908 278.397 182.782 290.945 189.656C297.262 193.093 302.022 196.444 305.138 199.623C308.253 202.803 309.205 205.381 308.686 207.185Z" fill="#000F08" stroke="#000F08" stroke-width="3.14028"/>
<path d="M307.734 111.892C334.215 158.55 305.657 213.887 277.358 222.824L181.646 191.89C172.906 174.619 156.377 129.593 166.935 89.981C181.646 34.5582 231.406 12.561 271.733 5.94465C286.185 3.53871 294.32 20.8959 290.772 35.9331C286.705 53.7199 288.522 78.0372 307.734 111.892Z" fill="url(#paint0_linear_57_983)"/>
<path d="M173.166 76.5764C185.281 79.0683 197.743 78.209 210.118 77.3497C223.012 76.4905 235.906 75.6312 248.368 78.4668C260.916 81.3024 273.032 87.8328 285.147 94.2773C291.637 97.7144 298.128 101.237 304.618 104.159C288.609 73.2253 286.532 50.6265 290.945 33.8708C294.839 18.9196 288.089 1.82016 273.637 4.22611C236.512 10.3269 191.079 29.7463 173.166 76.5764Z" fill="#F8B265"/>
<path d="M204.146 33.4413C204.406 33.4413 204.666 33.4413 204.839 33.4413C217.3 33.3553 230.627 41.6043 243.868 49.8533C257.108 58.1022 270.435 66.3512 282.897 66.2653C285.407 66.2653 287.83 65.9216 290.339 65.3201C287.916 52.6029 288.608 41.948 290.858 32.9257C294.58 17.8885 286.618 0.789121 272.166 3.36692C249.666 7.31955 224.223 16.2559 204.146 33.4413Z" fill="#EA5847"/>
<g opacity="0.13">
<path d="M181.041 191.031L195.233 192.663C188.742 159.066 192.81 44.3539 284.887 8.35058C281.685 5.60092 277.532 4.22609 272.685 4.99944C232.099 11.7876 182.079 34.0427 167.194 89.895C156.81 128.82 172.214 172.814 181.041 191.031Z" fill="#221006"/>
</g>
<path fill-rule="evenodd" clip-rule="evenodd" d="M286.186 12.2173C289.474 17.4589 290.772 24.9345 289.041 32.0664C284.455 51.4858 286.445 77.5216 307.993 113.009C321.926 135.952 320.195 161.042 311.368 181.837C302.628 202.545 291.205 211.653 277.618 217.153L187.531 193.609C182.858 184.93 174.983 177.111 170.396 158.808C165.723 140.076 163.387 118.423 167.8 97.8863C180.175 39.8857 230.368 14.5373 271.301 5.51504C277.791 4.05429 282.897 7.06172 286.186 12.2173ZM288.609 10.5847C284.714 4.398 278.31 0.703147 270.522 2.42168C229.243 11.5299 177.666 37.3939 164.944 97.027C160.444 118.251 162.867 140.42 167.627 159.496C172.387 178.486 180.608 186.906 185.368 195.757L185.714 196.358L278.051 220.418L278.484 220.246C293.022 214.575 305.138 204.693 314.138 183.297C323.224 161.816 325.215 135.522 310.503 111.377C289.301 76.5764 287.657 51.3999 291.984 33.0116C293.801 25.0204 292.416 16.5996 288.609 10.5847Z" fill="#000F08"/>
<path d="M180.868 178.142L183.464 186.305L187.271 182.782L180.868 165.94L177.319 154.77L174.637 140.764L175.156 148.239C175.848 158.465 177.752 168.432 180.868 178.142Z" fill="#000F08"/>
<path d="M210.897 200.912L211.589 203.49L218.252 200.912C215.397 196.358 213.147 191.289 212.108 186.047C211.07 180.72 210.204 175.306 209.685 169.893L209.512 168.002L209.252 174.275C208.647 186.82 207.781 188.539 210.897 200.912Z" fill="#000F08"/>
<path d="M262.82 187.766L262.128 190.171C259.531 198.85 257.974 203.576 254.079 209.935C252.349 212.684 248.628 213.286 246.031 211.223C250.358 207.443 254.339 203.146 257.281 198.249C259.099 195.241 260.743 192.148 262.301 189.054L262.82 187.766Z" fill="#000F08"/>
<path d="M281.858 207.357L290.599 200.053C293.628 196.702 296.224 193.007 298.301 188.969C298.301 188.883 298.387 188.969 298.387 188.969C297.003 195.843 293.887 202.373 289.474 207.872C288.695 208.818 287.31 209.161 286.185 208.818L281.858 207.357Z" fill="#000F08"/>
<path d="M150.665 211.395L159.925 171.44C160.358 169.721 162.262 168.69 163.646 169.807C168.925 173.931 173.079 182.524 225.868 196.358C274.157 209.075 293.195 208.56 307.041 207.099C309.291 206.841 311.022 209.075 310.157 211.138L294.061 251.18L285.926 242.071C252.176 204.006 197.656 191.632 150.665 211.395Z" fill="#CECECE"/>
<path d="M285.32 241.384C274.849 229.784 262.474 220.59 248.974 214.059L228.724 197.046C275.022 208.989 293.541 208.56 307.128 207.013C309.378 206.755 311.109 208.989 310.243 211.052L295.099 248.602L285.32 241.384Z" fill="#E3E3E3"/>
<path fill-rule="evenodd" clip-rule="evenodd" d="M162.088 170.924C161.829 171.01 161.569 171.354 161.396 171.783L152.742 208.99C199.733 190.515 253.474 203.232 287.051 241.04L293.541 248.344L308.859 210.536C309.291 209.505 308.426 208.388 307.301 208.474C293.195 210.021 273.983 210.45 225.608 197.733C199.214 190.773 184.848 185.188 176.367 180.72C169.877 177.283 166.848 174.533 164.685 172.557C163.992 171.955 163.386 171.44 162.867 170.924C162.521 170.752 162.348 170.752 162.088 170.924ZM149.194 211.052C149.108 211.31 149.108 211.653 149.281 211.997C149.627 212.77 150.492 213.114 151.271 212.77C197.742 193.265 251.483 205.381 284.801 243.017L294.493 253.929L311.628 211.653C312.926 208.474 310.33 205.209 306.955 205.552C293.368 207.013 274.503 207.529 226.3 194.898C199.992 187.937 185.887 182.438 177.665 178.142C171.608 174.963 168.838 172.471 166.675 170.494C165.896 169.807 165.29 169.205 164.511 168.69C163.3 167.745 161.915 167.745 160.704 168.26C159.579 168.776 158.713 169.893 158.367 171.182L149.194 211.052Z" fill="#000F08"/>
<defs>
<linearGradient id="paint0_linear_57_983" x1="221.821" y1="199.268" x2="254.699" y2="83.3895" gradientUnits="userSpaceOnUse">
<stop stop-color="#FFD74A"/>
<stop offset="0.0001" stop-color="#F5B440"/>
<stop offset="1" stop-color="#FFDA56"/>
</linearGradient>
</defs>
</svg>
