<svg width="618" height="958" viewBox="0 0 618 958" fill="none" xmlns="http://www.w3.org/2000/svg">
<path fill-rule="evenodd" clip-rule="evenodd" d="M205.8 560.4C319.1 541.1 465.9 560.5 552.1 642.4C583.3 672 602.1 705.2 602.9 743.4C605.8 762.2 604.9 809.8 578.2 849.9C544.9 900.1 449.1 925.7 419.5 933.2C389.8 940.7 319.7 948.6 264.5 922.4C210 896.6 242.9 847.7 255.5 829L255.9 828.3C268.1 810.1 273.3 790.5 166.5 787C56.3 779.4 33.6 748.3 21.8 724.5C17.6 716.1 15.9 706.6 16.6 697.3L17.3 686.8L17.6 683L19.6 672.8C33.4 624.2 108.9 576.9 205.8 560.4ZM341.7 877.3C369.4 879.2 392.8 867.5 393.9 851.1C395 834.7 373.5 819.9 345.8 817.9C318.1 816 294.7 827.7 293.6 844.1C292.4 860.5 313.9 875.3 341.7 877.3Z" fill="#000F08"/>
<path d="M17.3 686.9L16.6 697.4C16 706.8 17.7 716.2 21.8 724.6C33.6 748.4 56.4 779.5 166.5 787.1C273.3 790.6 268.2 810.2 255.9 828.4L255.5 829.1C242.9 847.8 210 896.7 264.5 922.5C319.6 948.6 389.8 940.8 419.5 933.3C449.2 925.8 544.9 900.2 578.2 850C604.9 809.9 605.8 762.2 602.9 743.5C602.1 705.3 583.3 672.1 552.1 642.5C465.9 560.6 319.2 541.2 205.8 560.5C108.9 577 33.4 624.3 19.5 672.9M17.3 686.9L17.6 683.1L19.6 672.9C18.2 677.6 17.5 682.2 17.3 686.9ZM393.9 851.1C392.8 867.5 369.4 879.2 341.7 877.3C314 875.4 292.4 860.5 293.6 844.1C294.7 827.7 318.1 816 345.8 817.9C373.5 819.9 395.1 834.7 393.9 851.1Z" stroke="#000F08" stroke-width="2.9732"/>
<path d="M17.3 701.7L16.9 691.8L19.8 688.9L28 698.5L62.2 725.4L93.5 739.7L150.4 754.4L193.9 757.4L222.6 754.1L252.4 758.7L270.4 772.2L276.9 795.8L275.7 813L264.2 829.9L254.3 844.6L256.4 863.3L273.2 884L314.8 898.3L380.6 904.9L423.2 897.6L502.6 872.6L552.1 838.8L584.8 804.4L597 774.2L603.8 753.6L602.4 773.2L599.5 791.8L595.7 807.6L591.1 821.5L580 840.6L568.8 856.2L548.7 872.9L533.5 884.1L500.8 900.6L456.3 917L412.7 929L366.3 934.3L335.1 933.6L299.9 928.4L270.9 919.2L255.3 911.8L242.9 900.8L236.6 890.6L234.1 876.5L237.8 862L248 842.5L259.8 824.2L265.5 812.9L266.1 804.7L259.9 797.9L247.5 791.2L225 785.3L186.3 781.3L164.7 781.1L131 777.5L98.5 771.9L72.9 763L57.8 756.4L43.4 747L30.7 734L23.8 722.8L19.7 715L17.3 701.7Z" fill="#D19F47"/>
<path fill-rule="evenodd" clip-rule="evenodd" d="M205.5 554.2C318.8 534.9 465.6 554.3 551.8 636.2C583 665.8 601.8 699 602.6 737.2C603 755.9 599.1 775.7 590.3 797C574.8 834.2 528.8 866.6 503.1 877.9C483.7 886.5 450.2 895.8 425 902.7C397.2 910.3 329.9 920.5 283.7 900.4C226 875.2 251.6 836.5 261.8 822.7C272 808.9 276.3 793.9 262.7 778.3C250.5 764.2 217.8 764.5 188.9 764.8C181.3 764.9 174 764.9 167.3 764.7C47.7 756.4 25.5 717.1 17.7 691.5C17.1 687.9 16.9 684.3 17 680.7L17.3 676.9L19.3 666.7C33.1 618 108.6 570.7 205.5 554.2ZM341.7 877.3C369.4 879.2 392.8 867.5 393.9 851.1C395 834.7 373.5 819.9 345.8 817.9C318.1 816 294.7 827.7 293.6 844.1C292.4 860.5 313.9 875.3 341.7 877.3Z" fill="url(#paint0_linear_57_909)"/>
<path d="M119.8 587.4C107.1 592.3 97.2 600 91.2 609C85.2 618 83.3 628.3 86.7 638.1C90.6 649 100.3 657.1 112.8 661.5C125.3 665.9 140.6 666.7 155.8 662.8C157.5 662.4 159.2 661.9 160.9 661.3C173.5 656.5 183.5 648.7 189.5 639.8C195.5 630.8 197.4 620.5 193.9 610.7C190 599.8 180.3 591.7 167.8 587.3C155.3 582.9 140 582.1 124.8 586C123.1 586.3 121.4 586.8 119.8 587.4Z" stroke="black" stroke-width="2"/>
<path d="M118.1 586.3C119.7 585.8 121.4 585.3 123.1 584.8C153.2 577.1 183.6 587.8 191.1 608.9C197.8 627.9 183.6 648.7 158.7 658.3C157.1 658.8 155.4 659.3 153.7 659.8C123.6 667.5 93.2 656.8 85.7 635.7C78.9 616.7 93.2 595.9 118.1 586.3Z" fill="#93382D"/>
<path d="M161.3 584.8C169.1 589.3 175 595.7 177.7 603.5C184.4 622.5 170.2 643.3 145.3 652.9C143.7 653.4 142 653.9 140.3 654.4C127 657.8 113.5 657.6 102.1 654.5C94.3 649.9 88.4 643.6 85.7 635.8C79 616.8 93.2 596 118.1 586.4C119.7 585.9 121.4 585.4 123.1 584.9C136.5 581.4 149.9 581.6 161.3 584.8Z" fill="url(#paint1_radial_57_909)"/>
<path d="M117.8 585.4C105.1 590.3 95.2 598 89.2 607C83.2 616 81.3 626.3 84.7 636.1C88.6 647 98.3 655.1 110.8 659.5C123.3 663.9 138.6 664.7 153.8 660.8C155.5 660.4 157.2 659.9 158.9 659.3C171.5 654.5 181.5 646.7 187.5 637.8C193.5 628.8 195.4 618.5 191.9 608.7C188 597.8 178.3 589.7 165.8 585.3C153.3 580.9 138 580.1 122.8 584C121.1 584.3 119.4 584.8 117.8 585.4Z" stroke="black" stroke-width="2"/>
<path opacity="0.5" d="M101 611.1L98.9 610.2C97.8 609.7 97.2 608.5 97.8 607.4C101.5 600.8 109.9 596.7 112.7 596C113.9 595.7 115.1 595.7 116.4 595.8C118.6 596 118.1 598.6 116.1 599.3C110.9 601.3 106.4 605.5 104.1 609.8C103.4 611 102.1 611.5 101 611.1Z" fill="white"/>
<path d="M339.6 628.7C356.8 619.9 366.6 605.1 362.6 589.5C361.9 586.7 360.7 584 359.2 581.4C348.7 567.1 325.2 558.6 300.9 561.3C286.1 563 273.6 568.5 265.4 576.1C257.2 583.8 253.4 593.6 256 603.8C258.6 614 267.1 622.3 278.5 627.7C289.9 633.1 304.4 635.6 319.2 634C326.7 633.1 333.6 631.3 339.6 628.7Z" stroke="black" stroke-width="2"/>
<path d="M338.2 626.8C355.1 618.2 364.5 603.7 360.7 588.7C360 586 358.9 583.3 357.4 580.9C347.2 566.9 324.1 558.5 300 561.2C270.7 564.5 251 583 256 602.5C261 622 288.8 635.2 318.1 632C325.5 631.1 332.3 629.3 338.2 626.8Z" fill="#163978"/>
<path d="M356 582.9C359.8 597.9 350.5 612.3 333.5 621C327.6 623.5 320.8 625.3 313.4 626.2C291.7 628.6 270.9 622 259.5 610.5C257.9 608 256.7 605.3 256 602.5C251 583 270.7 564.5 300 561.2C321.4 558.8 341.9 565.2 353.4 576.4C354.6 578.4 355.4 580.6 356 582.9Z" fill="url(#paint2_radial_57_909)"/>
<path opacity="0.5" d="M277.7 593.1L271 591.7C269.2 591.3 268.1 589.4 269.2 587.8C275.4 578.4 290.6 571.7 296 570.4C298.4 569.8 301 569.6 303.6 569.6C306.8 569.6 306.7 573.3 303.6 574.4C293.2 578 284.8 584.7 281.3 591.2C280.6 592.6 279.1 593.4 277.7 593.1Z" fill="white"/>
<path d="M338.6 627.7C355.8 618.9 365.6 604.1 361.6 588.5C360.9 585.7 359.7 583 358.2 580.4C347.7 566.1 324.2 557.6 299.9 560.3C285.1 562 272.6 567.5 264.4 575.1C256.2 582.8 252.4 592.6 255 602.8C257.6 613 266.1 621.3 277.5 626.7C288.9 632.1 303.4 634.6 318.2 633C325.7 632.1 332.6 630.3 338.6 627.7Z" stroke="black" stroke-width="2"/>
<path d="M463.3 680.7C491.8 684 516.2 669.2 517.6 647.7C519.1 626.2 497.1 606.1 468.6 602.8C440.1 599.5 415.7 614.3 414.3 635.8C412.9 657.3 434.8 677.4 463.3 680.7Z" stroke="black" stroke-width="3"/>
<path d="M462.3 678.7C490.8 682 515.2 667.2 516.6 645.7C518.1 624.2 496.1 604.1 467.6 600.8C439.1 597.5 414.7 612.3 413.3 633.8C411.9 655.3 433.8 675.4 462.3 678.7Z" fill="#218C62"/>
<path d="M464.5 678.9C463.8 678.8 463.1 678.8 462.3 678.7C433.8 675.4 411.8 655.3 413.3 633.8C414.5 615.8 431.7 602.5 454 600.6C454.7 600.7 455.4 600.7 456.2 600.8C484.7 604.1 506.7 624.2 505.2 645.7C504 663.7 486.8 677 464.5 678.9Z" fill="url(#paint3_radial_57_909)"/>
<path d="M462.2 679.7C476.7 681.4 490.1 678.5 500.2 672.4C510.3 666.3 516.9 657 517.7 645.8C518.5 634.7 513.2 624 504.1 615.7C495.1 607.4 482.2 601.5 467.8 599.8C453.3 598.1 439.9 601 429.8 607.1C419.7 613.2 413.1 622.5 412.3 633.7C411.5 644.8 416.8 655.5 425.9 663.8C434.9 672.1 447.7 678 462.2 679.7Z" stroke="black" stroke-width="2"/>
<path d="M428.1 637.1L425.8 635.6C424.6 634.8 424.2 633.4 424.7 632.1C431.8 614.4 446.4 608.3 456.5 607.7C457.7 607.6 457.5 609 456.4 609.3C448.7 611.2 438.7 617.8 432.8 635.4C432.1 637.4 429.8 638.3 428.1 637.1Z" fill="white" fill-opacity="0.5"/>
<path d="M556.5 791.7C554.6 817.4 525.9 835.3 492.6 831.6C459.2 828 433.8 804.2 435.7 778.5C437.6 752.8 466.3 734.9 499.6 738.6C533 742.3 558.5 766.1 556.5 791.7Z" stroke="black" stroke-width="5"/>
<path d="M556.5 788.9C554.6 814.6 525.7 832.4 492.1 828.8C458.5 825.1 432.8 801.4 434.7 775.7C436.6 750 465.5 732.2 499.1 735.8C532.8 739.4 558.5 763.2 556.5 788.9Z" fill="#C48F52"/>
<path d="M517.4 739.9C535.3 749.9 546.7 766.4 545.4 783.8C543.5 809.5 514.6 827.3 481 823.7C474.6 823 468.4 821.6 462.7 819.5C444.8 809.5 433.4 793 434.7 775.6C436.6 749.9 465.5 732.1 499.1 735.7C505.6 736.4 511.7 737.9 517.4 739.9Z" fill="url(#paint4_radial_57_909)"/>
<path d="M492 829.7C509 831.6 524.9 828 536.7 820.6C548.6 813.3 556.5 802.1 557.5 788.9C558.5 775.7 552.4 763 541.8 753.2C531.2 743.4 516.2 736.5 499.2 734.6C482.2 732.7 466.3 736.3 454.5 743.7C442.6 751 434.7 762.2 433.7 775.4C432.7 788.6 438.8 801.3 449.4 811.1C460 820.9 475 827.9 492 829.7Z" stroke="black" stroke-width="2"/>
<path d="M454.4 778.2L450.3 775.7C448.5 774.6 447.9 772.3 448.9 770.5C461.7 747.9 476.3 743.1 485.2 743.7C486.3 743.8 486.2 745.1 485.1 745.4C472.1 748.9 464.2 764.5 460.6 775.7C459.8 778.4 456.7 779.7 454.4 778.2Z" fill="white" fill-opacity="0.5"/>
<path opacity="0.2" d="M250 549.6C371.3 550.7 513.1 605.9 576 719.6C594.5 753.1 593.3 789.8 585.8 830.3C604.7 793.5 605.1 754 602.6 737.2C601.8 699 583 665.8 551.8 636.2C474.2 562.5 347.6 539.4 240.4 549.6C243.6 549.6 246.8 549.6 250 549.6Z" fill="#664006"/>
<g opacity="0.2">
<path d="M159.3 780.4L191.2 556.9C195.9 555.9 200.7 555 205.5 554.2C211.8 553.1 218.2 552.2 224.6 551.4L191.6 782.2C183.9 781.7 175.4 781.2 166.1 780.9C163.8 780.8 161.5 780.6 159.3 780.4Z" fill="#664006"/>
</g>
<path d="M245.5 902.9C240.7 888.1 248.9 880.6 253.6 878.7L251.8 874.7L247.8 865.5L246.8 857.6L248.5 849.4L248 845.4L243.4 850.7C242.1 854.7 238.7 860.3 238.7 860.6C238.7 860.9 235.2 871.6 234.2 874.3V878.4V882.4L235.5 885.8L238.6 893.7L245.5 902.9Z" fill="#000F08"/>
<path d="M18.4 711.3L16.5 694.2L23.8 705.5L29.3 716L36.1 723.8C31.2 726 30.9 730.7 31.3 732.8L28.4 729.2L24.2 723L18.4 711.3Z" fill="#000F08"/>
<path fill-rule="evenodd" clip-rule="evenodd" d="M205.3 552.8C318.9 533.5 466.2 552.9 552.8 635.2C584.1 665 603.2 698.4 604 737.1C606.9 756.2 605.9 804.1 579.1 844.6C562.2 870.1 529.6 889.1 497.7 902.8C465.8 916.5 434.3 924.8 419.5 928.5C404.5 932.3 379.5 936.2 351.2 935.8C322.9 935.4 291.4 930.8 263.6 917.7C250.7 911.6 242.7 904.1 238.5 895.9C234.3 887.7 233.8 878.9 235.4 870.4C238.4 854.4 248.9 838.8 256.1 828.4C257.7 825.9 259.3 823.7 260.6 821.9C263.6 817.4 265.6 813.1 265.6 809.1C265.6 805.2 263.6 801.3 257.9 797.7C252.1 794 242.6 790.6 227.7 788C212.9 785.4 192.9 783.5 166.2 782.6C111 778.8 77.5 769.1 56.3 757.2C35 745.3 26.2 731.3 20.2 719.2C15.9 710.5 14.2 700.8 14.8 691.2L15.5 680.7C15.5 679.4 15.6 678.2 15.8 676.9V676.8C16.2 673.3 16.8 669.8 17.8 666.4C24.9 641.5 47.6 617.3 80.5 597.2C113.4 577 156.7 561 205.3 552.8ZM17.6 695.9C17.7 703.5 19.4 711 22.8 717.7C28.6 729.4 37.1 742.9 57.7 754.4C78.4 765.9 111.3 775.6 166.3 779.4C193 780.3 213.2 782.2 228.2 784.9C243.2 787.6 253.2 791 259.5 795C265.2 798.6 267.9 802.8 268.5 807.3C269.2 805.2 269.6 803.1 269.8 801C270.4 794 268.3 786.8 261.7 779.2C256 772.6 245.3 769.2 232 767.6C218.8 766 203.5 766.1 189.1 766.2C181.5 766.3 174.2 766.3 167.5 766.1C107.3 762 71.5 750 49.8 735.8C30.1 722.9 21.9 708.3 17.6 695.9ZM258.6 829.9C259 829.3 259.4 828.7 259.8 828.2C261 826.5 262.1 824.9 263 823.6C268.2 816.6 272 809.1 272.7 801.3C273.4 793.4 270.9 785.4 263.8 777.3C257.3 769.8 245.6 766.3 232.2 764.7C218.8 763 203.3 763.2 188.9 763.3H188.8C181.2 763.4 173.9 763.4 167.3 763.2C107.6 759.1 72.5 747.2 51.3 733.3C30.2 719.5 22.9 703.7 19 691.1C18.4 687.7 18.2 684.2 18.3 680.7L18.6 677.1L20.6 667C27.4 643.2 49.4 619.5 81.9 599.6C114.4 579.7 157.4 563.9 205.6 555.7C318.7 536.5 464.9 555.9 550.6 637.4C581.6 666.8 600.1 699.7 600.9 737.3C601.3 755.7 597.4 775.4 588.7 796.5C581.1 814.8 565.9 832 549.3 846.1C532.7 860.2 514.9 871 502.2 876.6C482.9 885.1 449.5 894.4 424.4 901.3C410.6 905.1 386.9 909.5 361 910.5C335 911.5 306.9 909 284.1 899.1C269.8 892.9 260.8 885.9 255.5 878.8C250.2 871.7 248.4 864.4 248.6 857.4C249.1 846.9 254 837.1 258.6 829.9ZM247.1 847.9C243.1 855.1 239.7 863 238.2 870.9C236.7 879 237.2 887 241 894.5C244.9 902 252.2 909.1 264.7 915C292 927.9 323.1 932.5 351.1 932.9C379.1 933.3 403.9 929.4 418.7 925.7C433.5 921.9 464.8 913.7 496.5 900.1C528.3 886.5 560.2 867.7 576.6 843C594.5 816.1 600.7 785.7 601.9 763.2C599.9 774.3 596.5 785.7 591.6 797.6C583.7 816.5 568.2 834.1 551.4 848.3C534.6 862.5 516.6 873.5 503.6 879.3C484.1 887.9 450.4 897.3 425.3 904.2C411.3 908 387.4 912.5 361.2 913.5C335 914.5 306.4 912 283 901.8C268.4 895.4 258.9 888.2 253.2 880.5C247.4 872.8 245.4 864.9 245.7 857.3C245.9 854 246.4 850.9 247.1 847.9ZM310.4 825.5C301.2 830.1 295.6 836.8 295.1 844.2C294.6 851.7 299.2 859 307.7 864.9C316.2 870.7 328.2 874.8 341.8 875.8C355.4 876.7 367.9 874.3 377.1 869.7C386.3 865.1 391.9 858.4 392.4 851C392.9 843.5 388.3 836.2 379.8 830.3C371.3 824.5 359.3 820.4 345.7 819.4C332 818.5 319.5 820.9 310.4 825.5ZM309 822.8C318.7 817.9 331.8 815.4 345.9 816.4C360 817.4 372.6 821.6 381.5 827.8C390.4 834 396 842.2 395.4 851.1C394.8 860 388.1 867.4 378.4 872.3C368.7 877.2 355.6 879.7 341.5 878.7C327.4 877.7 314.8 873.5 305.9 867.3C297 861.1 291.4 852.9 292 844C292.7 835.1 299.3 827.7 309 822.8Z" fill="#000F08"/>
<path fill-rule="evenodd" clip-rule="evenodd" d="M341.6 878.6C374.5 880.9 402.4 865.4 403.9 844.1C405.4 822.7 379.9 803.6 347 801.3C314.1 799 286.2 814.5 284.7 835.8C283.1 857.2 308.6 876.4 341.6 878.6ZM341.7 877.3C369.4 879.2 392.8 867.5 393.9 851.1C395 834.7 373.5 819.9 345.8 817.9C318.1 816 294.7 827.7 293.6 844.1C292.4 860.5 313.9 875.3 341.7 877.3Z" fill="#000F08"/>
<path d="M135.7 896.9C162.431 896.9 184.1 890.901 184.1 883.5C184.1 876.099 162.431 870.1 135.7 870.1C108.969 870.1 87.3 876.099 87.3 883.5C87.3 890.901 108.969 896.9 135.7 896.9Z" fill="#000F08"/>
<path d="M223.7 480.7L156.8 471.3L106.6 827.3C105.6 834.2 106.8 841 109.7 846.8C114.5 856.5 123.8 863.8 135.3 865.4C136.5 865.6 137.6 865.7 138.7 865.7C155.8 866.4 171 854 173.4 836.7L223.7 480.7Z" fill="url(#paint5_linear_57_909)"/>
<path d="M207.2 478.3L223.7 480.6L173.5 836.6C171.8 848.9 163.6 858.7 152.9 863.1L207.2 478.3Z" fill="#4F4649" fill-opacity="0.8"/>
<path fill-rule="evenodd" clip-rule="evenodd" d="M219.9 483.6L159.9 475.1L110.1 827.7C107.8 844.3 119.3 859.6 135.9 862C152.5 864.3 167.8 852.8 170.2 836.2L219.9 483.6ZM156.9 471.2L106.7 827.2C104.1 845.7 116.9 862.7 135.4 865.3C153.9 867.9 170.9 855.1 173.5 836.6L223.7 480.6L156.9 471.2Z" fill="#000F08"/>
<path d="M146.7 543.2L151.9 506.2C166.5 504.8 186.5 507.3 207.8 513.8C211.5 514.9 215 516.1 218.5 517.4L211.2 569.3C205.1 568.1 198.7 566.5 192.3 564.5C174 558.8 158 551.2 146.7 543.2Z" fill="#000F08"/>
<path d="M126.1 494C128.3 477 143.8 465.1 160.8 467.3L216.2 474.5C233.2 476.7 245.1 492.2 242.9 509.2L241.9 516.6C240 531.6 227 542.8 212 542.8C190.1 542.8 168 540 146.8 534.3C132.4 530.5 123.1 516.6 125 501.8L126.1 494Z" fill="white"/>
<path d="M126.1 494C128.3 477 143.8 465.1 160.8 467.3L216.2 474.5C233.2 476.7 245.1 492.2 242.9 509.2L241.9 516.6C240 531.6 227 542.8 212 542.8C190.1 542.8 168 540 146.8 534.3C132.4 530.5 123.1 516.6 125 501.8L126.1 494Z" fill="white"/>
<path d="M242.1 516.3C224.3 522.8 201.1 523.4 177.4 516.8C156.8 511.1 139.4 500.8 127.4 488.6C131.9 474.6 145.8 465.4 160.9 467.3L216.3 474.5C233.3 476.7 245.2 492.2 243 509.2L242.1 516.3Z" fill="#000F08"/>
<path fill-rule="evenodd" clip-rule="evenodd" d="M215.6 477.4L160.3 470.1C145.3 468.1 131.5 478.9 129.6 494.3L128.6 502.2C126.9 515.5 135.1 528 147.8 531.4C168.6 537 190.3 539.9 211.9 539.9C225.2 539.9 236.6 529.8 238.3 516.3L239.3 508.8C241.3 493.4 230.7 479.4 215.6 477.4ZM160.8 466.6C143.9 464.4 128.4 476.6 126.2 493.8L125.2 501.7C123.3 516.7 132.6 530.9 146.9 534.7C168 540.4 190 543.3 211.9 543.3C226.9 543.3 239.8 531.9 241.7 516.7L242.7 509.2C244.9 491.9 233 476.1 216 473.9L160.8 466.6Z" fill="#000F08"/>
<path d="M237.443 505.3C243.494 503.3 249.545 500.7 255.398 497.6C261.846 494.1 267.897 490.2 273.353 485.7C286.447 475.1 297.161 461.9 304.7 446.8C312.339 431.4 316.604 414.4 317.1 397C317.299 390.1 316.803 383 315.712 375.9C314.72 369.4 313.132 363.2 311.148 357.1C309.164 351 306.585 345.1 303.51 339.3C300.137 332.9 296.268 327 292.003 321.5C281.388 308 267.897 297 252.62 289.4C237.641 281.9 221.075 277.7 204.31 277.2C197.267 277 190.124 277.5 182.883 278.6C176.335 279.6 169.987 281.2 163.935 283.3C158.083 285.3 152.23 287.8 146.575 290.9C140.326 294.2 134.473 298.1 129.116 302.3C115.625 313.1 104.614 326.7 96.9753 342.2C89.5353 357.3 85.3689 374 84.9721 391C84.7737 398.1 85.2697 405.2 86.3609 412.5C87.3529 419 88.9401 425.3 90.9241 431.4C92.9081 437.4 95.4873 443.3 98.4633 449.1C101.836 455.5 105.705 461.5 110.07 467C120.585 480.3 133.878 491.2 148.956 498.8C164.233 506.5 181.097 510.8 198.358 511.2C205.203 511.4 212.147 510.9 219.19 509.8C225.439 508.7 231.59 507.2 237.443 505.3Z" fill="#E3E3E3"/>
<path d="M107.928 324.184C116.653 314.484 127.163 306.184 139.259 299.684C195.873 269.384 266.07 291.084 296.112 348.184C317.727 389.284 312.67 437.384 286.991 472.484C269.838 491.684 246.241 505.284 218.975 509.584C155.718 519.684 96.3274 476.084 86.3133 412.284C81.3559 379.884 89.9818 348.584 107.928 324.184Z" fill="#CECECE"/>
<path fill-rule="evenodd" clip-rule="evenodd" d="M219.3 511C283.4 500.9 327.2 440.7 317 376.7C306.9 312.6 246.7 268.8 182.7 279C118.6 289.1 74.8 349.2 85 413.3C95.1 477.4 155.2 521.2 219.3 511ZM313.6 377.2C323.4 439.4 280.9 497.8 218.7 507.6C156.5 517.4 98.1 474.9 88.3 412.7C78.5 350.5 121 292.1 183.2 282.3C245.4 272.6 303.8 315 313.6 377.2Z" fill="#000F08"/>
<path d="M142.2 429.5C152.4 431.6 162.9 426.9 171.4 418C179.9 409.1 186.7 395.9 189.8 380.5C192.9 365.1 191.9 350.3 187.5 338.8C183.1 327.3 175.4 318.9 165.2 316.8C155 314.7 144.5 319.4 136 328.3C127.5 337.2 120.7 350.4 117.6 365.8C114.5 381.2 115.5 396 119.9 407.5C124.2 418.9 131.9 427.4 142.2 429.5Z" fill="white" stroke="#000F08" stroke-width="3"/>
<path d="M139.4 425.9C158.5 429.8 179.1 408.4 185.2 378.1C190.2 353.5 184.2 330.6 171.6 320.7C169.5 319.5 167.3 318.7 164.9 318.2C145.8 314.3 125.2 335.7 119.1 366C114.1 390.6 120.1 413.5 132.7 423.4C134.7 424.6 137 425.4 139.4 425.9Z" fill="#ECECEC"/>
<path d="M151.2 428.1C165.1 420.5 177.4 401.7 182.3 377.9C186.6 356.9 184 337 176.5 324.2C173.2 321.2 169.3 319.1 165 318.2C145.9 314.3 125.3 335.7 119.2 366C113 396.3 123.5 424.1 142.7 428C145.4 428.6 148.3 428.6 151.2 428.1Z" fill="white"/>
<path d="M147.9 373L165.3 365.7C167.1 345.5 161.5 327.5 151 318.8C135.9 323.4 121.9 341.9 116.9 366C112 390.1 117.6 412.6 129.8 422.8C143.1 418.8 155.6 403.9 161.7 384L147.9 373Z" fill="#000F08"/>
<path d="M216.7 441.7C226.9 443.8 237.4 439.1 245.9 430.2C254.4 421.3 261.2 408.1 264.3 392.7C267.4 377.3 266.4 362.5 262 351C257.6 339.5 249.9 331.1 239.7 329C229.5 326.9 219 331.6 210.5 340.5C202 349.4 195.2 362.6 192.1 378C189 393.4 190 408.2 194.4 419.7C198.7 431.2 206.4 439.6 216.7 441.7Z" fill="white" stroke="#000F08" stroke-width="3"/>
<path d="M213.8 438.2C232.9 442.1 253.5 420.7 259.6 390.4C264.6 365.8 258.6 342.9 246 333C243.9 331.8 241.7 331 239.3 330.5C220.2 326.6 199.6 348 193.5 378.3C188.5 402.9 194.5 425.8 207.1 435.7C209.2 436.8 211.5 437.7 213.8 438.2Z" fill="#ECECEC"/>
<path d="M225.6 440.4C239.5 432.8 251.8 414 256.7 390.2C261 369.2 258.4 349.3 250.9 336.5C247.6 333.5 243.7 331.4 239.4 330.5C220.3 326.6 199.7 348 193.6 378.3C187.4 408.6 197.9 436.4 217.1 440.3C219.9 440.9 222.8 440.9 225.6 440.4Z" fill="white"/>
<path d="M222.9 385.3L240.3 378C242.1 357.8 236.5 339.8 226 331.1C210.9 335.7 196.9 354.2 191.9 378.3C187 402.4 192.6 424.9 204.8 435.1C218.1 431.1 230.6 416.2 236.7 396.3L222.9 385.3Z" fill="#000F08"/>
<path d="M200.564 444.922C202.653 433.963 194.583 423.219 182.539 420.924C170.495 418.628 159.039 425.651 156.95 436.61C154.862 447.569 162.932 458.313 174.976 460.608C187.02 462.904 198.476 455.881 200.564 444.922Z" fill="#000F08"/>
<path d="M175.7 457.3C187.7 459.6 199 453.3 200.9 443.3C202.8 433.3 194.6 423.3 182.6 421C170.6 418.7 159.3 425 157.4 435C155.4 445 163.6 455 175.7 457.3Z" fill="#EEC26C"/>
<path d="M157.2 440.1C161.2 433 170.7 429 180.7 430.9C190.7 432.8 198 440 199.1 448.1C195.1 455.2 185.6 459.2 175.6 457.3C165.7 455.4 158.4 448.2 157.2 440.1Z" fill="#D6A13B"/>
<path fill-rule="evenodd" clip-rule="evenodd" d="M176.3 454C187.1 456.1 196.1 450.3 197.6 442.6C199.1 434.9 192.8 426.2 182 424.2C171.2 422.1 162.2 427.9 160.7 435.6C159.2 443.3 165.5 451.9 176.3 454ZM175.7 457.3C187.7 459.6 199 453.3 200.9 443.3C202.8 433.3 194.6 423.2 182.6 421C170.6 418.7 159.3 425 157.4 435C155.4 445 163.6 455 175.7 457.3Z" fill="#000F08"/>
<path fill-rule="evenodd" clip-rule="evenodd" d="M214.5 473.2C215.3 473.6 215.7 474.7 215.2 475.5C212.4 480.8 208.2 485.1 203 488C197.8 490.9 191.9 492.3 186 491.9C180.1 491.5 174.4 489.5 169.6 485.9C164.8 482.4 161.1 477.6 159 472C158.7 471.1 159.1 470.1 160 469.8C160.9 469.5 161.9 469.9 162.2 470.8C164.1 475.7 167.4 480 171.6 483.2C175.9 486.3 180.9 488.2 186.2 488.5C191.5 488.8 196.7 487.6 201.3 485C205.9 482.4 209.7 478.6 212.2 473.9C212.6 473 213.6 472.7 214.5 473.2Z" fill="#000F08"/>
<path fill-rule="evenodd" clip-rule="evenodd" d="M209.5 473.2C209 472.4 209.2 471.3 209.9 470.8C210.8 470.2 211.9 469.8 213 469.8C214.1 469.8 215.2 470.1 216.1 470.6C217 471.2 217.8 472 218.3 473C218.8 474 219 475.1 218.8 476.2C218.7 477.1 217.8 477.8 216.9 477.7C216 477.6 215.3 476.7 215.4 475.8C215.5 475.4 215.4 474.9 215.2 474.5C215 474.1 214.7 473.8 214.3 473.5C213.9 473.3 213.5 473.2 213 473.2C212.6 473.2 212.1 473.4 211.8 473.6C211.1 474.2 210 474 209.5 473.2Z" fill="#000F08"/>
<path fill-rule="evenodd" clip-rule="evenodd" d="M156.7 473.8C155.8 473.7 155.1 472.9 155.2 471.9C155.3 470.8 155.7 469.8 156.4 468.9C157.1 468 158 467.4 159.1 467C160.2 466.6 161.3 466.6 162.4 466.9C163.5 467.2 164.4 467.8 165.2 468.6C165.8 469.3 165.8 470.4 165.1 471C164.4 471.6 163.3 471.6 162.7 470.9C162.4 470.6 162 470.3 161.6 470.2C161.2 470.1 160.7 470.1 160.3 470.2C159.9 470.3 159.5 470.6 159.2 470.9C158.9 471.2 158.7 471.7 158.7 472.1C158.5 473.3 157.6 473.9 156.7 473.8Z" fill="#000F08"/>
<path d="M321.5 291.8C321 293.9 318.6 296 313.7 297.5C308.9 299 302.1 299.8 293.8 299.8C277.2 299.8 255 296.8 231.2 290.7C207.3 284.6 186.4 276.6 171.9 268.6C164.6 264.6 159.1 260.7 155.5 257C151.9 253.3 150.8 250.4 151.4 248.2C151.9 246.1 154.3 244 159.2 242.5C164 241 170.8 240.2 179.1 240.2C195.7 240.2 217.9 243.2 241.7 249.3C265.6 255.4 286.5 263.4 301 271.4C308.3 275.4 313.8 279.3 317.4 283C321 286.7 322.1 289.7 321.5 291.8Z" fill="#000F08" stroke="#000F08" stroke-width="3.6546"/>
<path d="M320.4 180.9C351 235.2 318 299.6 285.3 310L174.7 274C164.6 253.9 145.5 201.5 157.7 155.4C174.7 90.9 232.2 65.3 278.8 57.6C295.5 54.8 304.9 75 300.8 92.5C296.1 113.2 298.2 141.5 320.4 180.9Z" fill="url(#paint6_linear_57_909)"/>
<path d="M164.9 139.8C178.9 142.7 193.3 141.7 207.6 140.7C222.5 139.7 237.4 138.7 251.8 142C266.3 145.3 280.3 152.9 294.3 160.4C301.8 164.4 309.3 168.5 316.8 171.9C298.3 135.9 295.9 109.6 301 90.1C305.5 72.7 297.7 52.8 281 55.6C238.1 62.7 185.6 85.3 164.9 139.8Z" fill="#F8B265"/>
<path d="M200.7 89.6C201 89.6 201.3 89.6 201.5 89.6C215.9 89.5 231.3 99.1 246.6 108.7C261.9 118.3 277.3 127.9 291.7 127.8C294.6 127.8 297.4 127.4 300.3 126.7C297.5 111.9 298.3 99.5 300.9 89C305.2 71.5 296 51.6 279.3 54.6C253.3 59.2 223.9 69.6 200.7 89.6Z" fill="#EA5847"/>
<g opacity="0.13">
<path d="M174 273L190.4 274.9C182.9 235.8 187.6 102.3 294 60.4C290.3 57.2 285.5 55.6 279.9 56.5C233 64.4 175.2 90.3 158 155.3C146 200.6 163.8 251.8 174 273Z" fill="#221006"/>
</g>
<path fill-rule="evenodd" clip-rule="evenodd" d="M295.5 64.9C299.3 71 300.8 79.7 298.8 88C293.5 110.6 295.8 140.9 320.7 182.2C336.8 208.9 334.8 238.1 324.6 262.3C314.5 286.4 301.3 297 285.6 303.4L181.5 276C176.1 265.9 167 256.8 161.7 235.5C156.3 213.7 153.6 188.5 158.7 164.6C173 97.1 231 67.6 278.3 57.1C285.8 55.4 291.7 58.9 295.5 64.9ZM298.3 63C293.8 55.8 286.4 51.5 277.4 53.5C229.7 64.1 170.1 94.2 155.4 163.6C150.2 188.3 153 214.1 158.5 236.3C164 258.4 173.5 268.2 179 278.5L179.4 279.2L286.1 307.2L286.6 307C303.4 300.4 317.4 288.9 327.8 264C338.3 239 340.6 208.4 323.6 180.3C299.1 139.8 297.2 110.5 302.2 89.1C304.3 79.8 302.7 70 298.3 63Z" fill="#000F08"/>
<path d="M173.8 258L176.8 267.5L181.2 263.4L173.8 243.8L169.7 230.8L166.6 214.5L167.2 223.2C168 235.1 170.2 246.7 173.8 258Z" fill="#000F08"/>
<path d="M208.5 284.5L209.3 287.5L217 284.5C213.7 279.2 211.1 273.3 209.9 267.2C208.7 261 207.7 254.7 207.1 248.4L206.9 246.2L206.6 253.5C205.9 268.1 204.9 270.1 208.5 284.5Z" fill="#000F08"/>
<path d="M268.5 269.2L267.7 272C264.7 282.1 262.9 287.6 258.4 295C256.4 298.2 252.1 298.9 249.1 296.5C254.1 292.1 258.7 287.1 262.1 281.4C264.2 277.9 266.1 274.3 267.9 270.7L268.5 269.2Z" fill="#000F08"/>
<path d="M290.5 292L300.6 283.5C304.1 279.6 307.1 275.3 309.5 270.6C309.5 270.5 309.6 270.6 309.6 270.6C308 278.6 304.4 286.2 299.3 292.6C298.4 293.7 296.8 294.1 295.5 293.7L290.5 292Z" fill="#000F08"/>
<path d="M138.9 296.7L149.6 250.2C150.1 248.2 152.3 247 153.9 248.3C160 253.1 164.8 263.1 225.8 279.2C281.6 294 303.6 293.4 319.6 291.7C322.2 291.4 324.2 294 323.2 296.4L304.6 343L295.2 332.4C256.2 288.1 193.2 273.7 138.9 296.7Z" fill="#CECECE"/>
<path d="M294.5 331.6C282.4 318.1 268.1 307.4 252.5 299.8L229.1 280C282.6 293.9 304 293.4 319.7 291.6C322.3 291.3 324.3 293.9 323.3 296.3L305.8 340L294.5 331.6Z" fill="#E3E3E3"/>
<path fill-rule="evenodd" clip-rule="evenodd" d="M152.1 249.6C151.8 249.7 151.5 250.1 151.3 250.6L141.3 293.9C195.6 272.4 257.7 287.2 296.5 331.2L304 339.7L321.7 295.7C322.2 294.5 321.2 293.2 319.9 293.3C303.6 295.1 281.4 295.6 225.5 280.8C195 272.7 178.4 266.2 168.6 261C161.1 257 157.6 253.8 155.1 251.5C154.3 250.8 153.6 250.2 153 249.6C152.6 249.4 152.4 249.4 152.1 249.6ZM137.2 296.3C137.1 296.6 137.1 297 137.3 297.4C137.7 298.3 138.7 298.7 139.6 298.3C193.3 275.6 255.4 289.7 293.9 333.5L305.1 346.2L324.9 297C326.4 293.3 323.4 289.5 319.5 289.9C303.8 291.6 282 292.2 226.3 277.5C195.9 269.4 179.6 263 170.1 258C163.1 254.3 159.9 251.4 157.4 249.1C156.5 248.3 155.8 247.6 154.9 247C153.5 245.9 151.9 245.9 150.5 246.5C149.2 247.1 148.2 248.4 147.8 249.9L137.2 296.3Z" fill="#000F08"/>
<defs>
<linearGradient id="paint0_linear_57_909" x1="314.935" y1="547.925" x2="303.6" y2="905.509" gradientUnits="userSpaceOnUse">
<stop stop-color="#E8B946"/>
<stop offset="1" stop-color="#FBC84C"/>
</linearGradient>
<radialGradient id="paint1_radial_57_909" cx="0" cy="0" r="1" gradientUnits="userSpaceOnUse" gradientTransform="translate(115.093 606.725) rotate(49.7976) scale(46.9563 60.0003)">
<stop stop-color="#F7614F"/>
<stop offset="1" stop-color="#BF3A2A"/>
</radialGradient>
<radialGradient id="paint2_radial_57_909" cx="0" cy="0" r="1" gradientUnits="userSpaceOnUse" gradientTransform="translate(287.829 578.239) rotate(41.0805) scale(78.2735 115.255)">
<stop offset="0.046875" stop-color="#6085C7"/>
<stop offset="1" stop-color="#234C94"/>
</radialGradient>
<radialGradient id="paint3_radial_57_909" cx="0" cy="0" r="1" gradientUnits="userSpaceOnUse" gradientTransform="translate(439.618 619.088) rotate(46.218) scale(73.6479 93.4227)">
<stop stop-color="#6BDCAF"/>
<stop offset="1" stop-color="#4BAC86"/>
</radialGradient>
<radialGradient id="paint4_radial_57_909" cx="0" cy="0" r="1" gradientUnits="userSpaceOnUse" gradientTransform="translate(485.565 752.639) rotate(62.488) scale(76.8794 100.966)">
<stop stop-color="#FCBC71"/>
<stop offset="1" stop-color="#E98D38"/>
</radialGradient>
<linearGradient id="paint5_linear_57_909" x1="181.806" y1="535.371" x2="135.569" y2="865.369" gradientUnits="userSpaceOnUse">
<stop stop-color="#3A3335"/>
<stop offset="1" stop-color="#494445"/>
</linearGradient>
<linearGradient id="paint6_linear_57_909" x1="221.123" y1="282.586" x2="259.618" y2="147.873" gradientUnits="userSpaceOnUse">
<stop stop-color="#FFD74A"/>
<stop offset="0.0001" stop-color="#F5B440"/>
<stop offset="1" stop-color="#FFDA56"/>
</linearGradient>
</defs>
</svg>
