<svg width="592" height="398" viewBox="0 0 592 398" fill="none" xmlns="http://www.w3.org/2000/svg">
<g clip-path="url(#clip0_59_77)">
<path fill-rule="evenodd" clip-rule="evenodd" d="M191.8 15.4C305.1 -3.89999 451.9 15.5 538.1 97.4C569.3 127 588.1 160.2 588.9 198.4C591.8 217.2 590.9 264.8 564.2 304.9C530.9 355.1 435.1 380.7 405.5 388.2C375.8 395.7 305.7 403.6 250.5 377.4C196 351.6 228.9 302.7 241.5 284L241.9 283.3C254.1 265.1 259.3 245.5 152.5 242C42.3001 234.4 19.6001 203.3 7.80008 179.5C3.60008 171.1 1.90008 161.6 2.60008 152.3L3.30008 141.8L3.60008 138L5.60008 127.8C19.4001 79.2 94.9001 31.9 191.8 15.4ZM327.7 332.3C355.4 334.2 378.8 322.5 379.9 306.1C381 289.7 359.5 274.9 331.8 272.9C304.1 271 280.7 282.7 279.6 299.1C278.4 315.5 299.9 330.3 327.7 332.3Z" fill="#000F08"/>
<path d="M3.30008 141.9L2.60008 152.4C2.00008 161.8 3.70008 171.2 7.80008 179.6C19.6001 203.4 42.4001 234.5 152.5 242.1C259.3 245.6 254.2 265.2 241.9 283.4L241.5 284.1C228.9 302.8 196 351.7 250.5 377.5C305.6 403.6 375.8 395.8 405.5 388.3C435.2 380.8 530.9 355.2 564.2 305C590.9 264.9 591.8 217.2 588.9 198.5C588.1 160.3 569.3 127.1 538.1 97.5C451.9 15.6 305.2 -3.80001 191.8 15.5C94.9001 32 19.4001 79.3 5.50008 127.9M3.30008 141.9L3.60008 138.1L5.60008 127.9C4.20008 132.6 3.50008 137.2 3.30008 141.9ZM379.9 306.1C378.8 322.5 355.4 334.2 327.7 332.3C300 330.4 278.4 315.5 279.6 299.1C280.7 282.7 304.1 271 331.8 272.9C359.5 274.9 381.1 289.7 379.9 306.1Z" stroke="#000F08" stroke-width="2.9732"/>
<path d="M3.2999 156.7L2.8999 146.8L5.7999 143.9L13.9999 153.5L48.1999 180.4L79.4999 194.7L136.4 209.4L179.9 212.4L208.6 209.1L238.4 213.7L256.4 227.2L262.9 250.8L261.7 268L250.2 284.9L240.3 299.6L242.4 318.3L259.2 339L300.8 353.3L366.6 359.9L409.2 352.6L488.6 327.6L538.1 293.8L570.8 259.4L583 229.2L589.8 208.6L588.4 228.2L585.5 246.8L581.7 262.6L577.1 276.5L566 295.6L554.8 311.2L534.7 327.9L519.5 339.1L486.8 355.6L442.3 372L398.7 384L352.3 389.3L321.1 388.6L285.9 383.4L256.9 374.2L241.3 366.8L228.9 355.8L222.6 345.6L220.1 331.5L223.8 317L234 297.5L245.8 279.2L251.5 267.9L252.1 259.7L245.9 252.9L233.5 246.2L211 240.3L172.3 236.3L150.7 236.1L117 232.5L84.4999 226.9L58.8999 218L43.7999 211.4L29.3999 202L16.6999 189L9.7999 177.8L5.6999 170L3.2999 156.7Z" fill="#D19F47"/>
<path fill-rule="evenodd" clip-rule="evenodd" d="M191.5 9.19994C304.8 -10.1001 451.6 9.29993 537.8 91.1999C569 120.8 587.8 154 588.6 192.2C589 210.9 585.1 230.7 576.3 252C560.8 289.2 514.8 321.6 489.1 332.9C469.7 341.5 436.2 350.8 411 357.7C383.2 365.3 315.9 375.5 269.7 355.4C212 330.2 237.6 291.5 247.8 277.7C258 263.9 262.3 248.9 248.7 233.3C236.5 219.2 203.8 219.5 174.9 219.8C167.3 219.9 160 219.9 153.3 219.7C33.6999 211.4 11.4999 172.1 3.6999 146.5C3.0999 142.9 2.8999 139.3 2.9999 135.7L3.2999 131.9L5.2999 121.7C19.0999 72.9999 94.5999 25.6999 191.5 9.19994ZM327.7 332.3C355.4 334.2 378.8 322.5 379.9 306.1C381 289.7 359.5 274.9 331.8 272.9C304.1 271 280.7 282.7 279.6 299.1C278.4 315.5 299.9 330.3 327.7 332.3Z" fill="url(#paint0_linear_59_77)"/>
<path d="M105.171 42.3712C92.7009 47.235 82.9798 54.8781 77.0883 63.8116C71.1968 72.7451 69.3311 82.969 72.6697 92.6967C76.4992 103.516 86.0238 111.556 98.2978 115.924C110.572 120.291 125.595 121.085 140.52 117.214C142.19 116.817 143.859 116.321 145.528 115.725C157.9 110.961 167.72 103.218 173.611 94.3841C179.503 85.4506 181.368 75.2267 177.932 65.4991C174.102 54.6796 164.577 46.6394 152.303 42.2719C140.029 37.9044 125.006 37.1103 110.081 40.9815C108.412 41.2793 106.742 41.7756 105.171 42.3712Z" stroke="black" stroke-width="2"/>
<path d="M104.1 41.2999C105.7 40.7999 107.4 40.2999 109.1 39.7999C139.2 32.0999 169.6 42.8 177.1 63.9C183.8 82.9 169.6 103.7 144.7 113.3C143.1 113.8 141.4 114.3 139.7 114.8C109.6 122.5 79.1999 111.8 71.6999 90.7C64.8999 71.7 79.1999 50.8999 104.1 41.2999Z" fill="#93382D"/>
<path d="M147.3 39.8C155.1 44.3 161 50.7 163.7 58.5C170.4 77.5 156.2 98.3001 131.3 107.9C129.7 108.4 128 108.9 126.3 109.4C113 112.8 99.5 112.6 88.1 109.5C80.3 104.9 74.4 98.6 71.7 90.8C65 71.8 79.2 51.0001 104.1 41.4001C105.7 40.9001 107.4 40.4001 109.1 39.9001C122.5 36.4001 135.9 36.6 147.3 39.8Z" fill="url(#paint1_radial_59_77)"/>
<path d="M103.8 40.4001C91.1 45.3001 81.2 53.0001 75.2 62.0001C69.2 71.0001 67.3 81.3001 70.7 91.1001C74.6 102 84.3 110.1 96.8 114.5C109.3 118.9 124.6 119.7 139.8 115.8C141.5 115.4 143.2 114.9 144.9 114.3C157.5 109.5 167.5 101.7 173.5 92.8001C179.5 83.8001 181.4 73.5001 177.9 63.7001C174 52.8001 164.3 44.7001 151.8 40.3001C139.3 35.9001 124 35.1001 108.8 39.0001C107.1 39.3001 105.4 39.8001 103.8 40.4001Z" stroke="black" stroke-width="2"/>
<path opacity="0.5" d="M87.0001 66.1L84.9001 65.2001C83.8001 64.7001 83.2001 63.5001 83.8001 62.4001C87.5001 55.8001 95.9001 51.7001 98.7001 51.0001C99.9001 50.7001 101.1 50.7 102.4 50.8C104.6 51 104.1 53.6 102.1 54.3C96.9001 56.3 92.4001 60.5 90.1001 64.8C89.4001 66 88.1001 66.5 87.0001 66.1Z" fill="white"/>
<path d="M325.6 83.7001C342.8 74.9001 352.6 60.1001 348.6 44.5001C347.9 41.7001 346.7 39.0001 345.2 36.4001C334.7 22.1001 311.2 13.6001 286.9 16.3001C272.1 18.0001 259.6 23.5001 251.4 31.1001C243.2 38.8001 239.4 48.6001 242 58.8001C244.6 69.0001 253.1 77.3001 264.5 82.7001C275.9 88.1001 290.4 90.6001 305.2 89.0001C312.7 88.1001 319.6 86.3001 325.6 83.7001Z" stroke="black" stroke-width="2"/>
<path d="M324.2 81.7999C341.1 73.1999 350.5 58.7 346.7 43.7C346 41 344.9 38.3 343.4 35.9C333.2 21.9 310.1 13.5 286 16.2C256.7 19.5 237 37.9999 242 57.4999C247 76.9999 274.8 90.1999 304.1 86.9999C311.5 86.0999 318.3 84.2999 324.2 81.7999Z" fill="#163978"/>
<path d="M342 37.9001C345.8 52.9001 336.5 67.3 319.5 76C313.6 78.5 306.8 80.3 299.4 81.2C277.7 83.6 256.9 77 245.5 65.5C243.9 63 242.7 60.3 242 57.5C237 38 256.7 19.5 286 16.2C307.4 13.8 327.9 20.2001 339.4 31.4001C340.6 33.4001 341.4 35.6001 342 37.9001Z" fill="url(#paint2_radial_59_77)"/>
<path opacity="0.5" d="M263.7 48.1L257 46.7C255.2 46.3 254.1 44.4 255.2 42.8C261.4 33.4 276.6 26.7 282 25.4C284.4 24.8 287 24.6 289.6 24.6C292.8 24.6 292.7 28.3 289.6 29.4C279.2 33 270.8 39.7 267.3 46.2C266.6 47.6 265.1 48.4 263.7 48.1Z" fill="white"/>
<path d="M324.6 82.7001C341.8 73.9001 351.6 59.1001 347.6 43.5001C346.9 40.7001 345.7 38.0001 344.2 35.4001C333.7 21.1001 310.2 12.6001 285.9 15.3001C271.1 17.0001 258.6 22.5001 250.4 30.1001C242.2 37.8001 238.4 47.6001 241 57.8001C243.6 68.0001 252.1 76.3001 263.5 81.7001C274.9 87.1001 289.4 89.6001 304.2 88.0001C311.7 87.1001 318.6 85.3001 324.6 82.7001Z" stroke="black" stroke-width="2"/>
<path d="M449.3 135.7C477.8 139 502.2 124.2 503.6 102.7C505.1 81.2 483.1 61.1 454.6 57.8C426.1 54.5 401.7 69.3 400.3 90.8C398.9 112.3 420.8 132.4 449.3 135.7Z" stroke="black" stroke-width="3"/>
<path d="M448.3 133.7C476.8 137 501.2 122.2 502.6 100.7C504.1 79.2 482.1 59.1 453.6 55.8C425.1 52.5 400.7 67.3 399.3 88.8C397.9 110.3 419.8 130.4 448.3 133.7Z" fill="#218C62"/>
<path d="M450.5 133.9C449.8 133.8 449.1 133.8 448.3 133.7C419.8 130.4 397.8 110.3 399.3 88.8C400.5 70.8 417.7 57.5 440 55.6C440.7 55.7 441.4 55.7 442.2 55.8C470.7 59.1 492.7 79.2 491.2 100.7C490 118.7 472.8 132 450.5 133.9Z" fill="url(#paint3_radial_59_77)"/>
<path d="M448.2 134.7C462.7 136.4 476.1 133.5 486.2 127.4C496.3 121.3 502.9 112 503.7 100.8C504.5 89.7 499.2 79 490.1 70.7C481.1 62.4 468.2 56.5 453.8 54.8C439.3 53.1 425.9 56 415.8 62.1C405.7 68.2 399.1 77.5 398.3 88.7C397.5 99.8 402.8 110.5 411.9 118.8C420.9 127.1 433.7 133 448.2 134.7Z" stroke="black" stroke-width="2"/>
<path d="M414.1 92.0999L411.8 90.5999C410.6 89.7999 410.2 88.3999 410.7 87.0999C417.8 69.3999 432.4 63.2999 442.5 62.6999C443.7 62.5999 443.5 63.9999 442.4 64.2999C434.7 66.1999 424.7 72.7999 418.8 90.3999C418.1 92.3999 415.8 93.2999 414.1 92.0999Z" fill="white" fill-opacity="0.5"/>
<path d="M542.5 246.7C540.6 272.4 511.9 290.3 478.6 286.6C445.2 283 419.8 259.2 421.7 233.5C423.6 207.8 452.3 189.9 485.6 193.6C519 197.3 544.5 221.1 542.5 246.7Z" stroke="black" stroke-width="5"/>
<path d="M542.5 243.9C540.6 269.6 511.7 287.4 478.1 283.8C444.5 280.1 418.8 256.4 420.7 230.7C422.6 205 451.5 187.2 485.1 190.8C518.8 194.4 544.5 218.2 542.5 243.9Z" fill="#C48F52"/>
<path d="M503.4 194.9C521.3 204.9 532.7 221.4 531.4 238.8C529.5 264.5 500.6 282.3 467 278.7C460.6 278 454.4 276.6 448.7 274.5C430.8 264.5 419.4 248 420.7 230.6C422.6 204.9 451.5 187.1 485.1 190.7C491.6 191.4 497.7 192.9 503.4 194.9Z" fill="url(#paint4_radial_59_77)"/>
<path d="M478 284.7C495 286.6 510.9 283 522.7 275.6C534.6 268.3 542.5 257.1 543.5 243.9C544.5 230.7 538.4 218 527.8 208.2C517.2 198.4 502.2 191.5 485.2 189.6C468.2 187.7 452.3 191.3 440.5 198.7C428.6 206 420.7 217.2 419.7 230.4C418.7 243.6 424.8 256.3 435.4 266.1C446 275.9 461 282.9 478 284.7Z" stroke="black" stroke-width="2"/>
<path d="M440.4 233.2L436.3 230.7C434.5 229.6 433.9 227.3 434.9 225.5C447.7 202.9 462.3 198.1 471.2 198.7C472.3 198.8 472.2 200.1 471.1 200.4C458.1 203.9 450.2 219.5 446.6 230.7C445.8 233.4 442.7 234.7 440.4 233.2Z" fill="white" fill-opacity="0.5"/>
<path opacity="0.2" d="M236 4.59996C357.3 5.69996 499.1 60.9 562 174.6C580.5 208.1 579.3 244.8 571.8 285.3C590.7 248.5 591.1 209 588.6 192.2C587.8 154 569 120.8 537.8 91.2C460.2 17.5 333.6 -5.60004 226.4 4.59996C229.6 4.59996 232.8 4.59996 236 4.59996Z" fill="#664006"/>
<path d="M231.5 357.9C226.7 343.1 234.9 335.6 239.6 333.7L237.8 329.7L233.8 320.5L232.8 312.6L234.5 304.4L234 300.4L229.4 305.7C228.1 309.7 224.7 315.3 224.7 315.6C224.7 315.9 221.2 326.6 220.2 329.3V333.4V337.4L221.5 340.8L224.6 348.7L231.5 357.9Z" fill="#000F08"/>
<path d="M4.4 166.3L2.5 149.2L9.8 160.5L15.3 171L22.1 178.8C17.2 181 16.9 185.7 17.3 187.8L14.4 184.2L10.2 178L4.4 166.3Z" fill="#000F08"/>
<path fill-rule="evenodd" clip-rule="evenodd" d="M191.3 7.8C304.9 -11.5 452.2 7.90002 538.8 90.2C570.1 120 589.2 153.4 590 192.1C592.9 211.2 591.9 259.1 565.1 299.6C548.2 325.1 515.6 344.1 483.7 357.8C451.8 371.5 420.3 379.8 405.5 383.5C390.5 387.3 365.5 391.2 337.2 390.8C308.9 390.4 277.4 385.8 249.6 372.7C236.7 366.6 228.7 359.1 224.5 350.9C220.3 342.7 219.8 333.9 221.4 325.4C224.4 309.4 234.9 293.8 242.1 283.4C243.7 280.9 245.3 278.7 246.6 276.9C249.6 272.4 251.6 268.1 251.6 264.1C251.6 260.2 249.6 256.3 243.9 252.7C238.1 249 228.6 245.6 213.7 243C198.9 240.4 178.9 238.5 152.2 237.6C97.0001 233.8 63.5001 224.1 42.3001 212.2C21.0001 200.3 12.2001 186.3 6.20008 174.2C1.90008 165.5 0.200083 155.8 0.800084 146.2L1.50008 135.7C1.50008 134.4 1.60008 133.2 1.80008 131.9V131.8C2.20008 128.3 2.80008 124.8 3.80008 121.4C10.9001 96.5 33.6001 72.3 66.5001 52.2C99.4001 32 142.7 16 191.3 7.8ZM3.60008 150.9C3.70008 158.5 5.40008 166 8.80008 172.7C14.6001 184.4 23.1001 197.9 43.7001 209.4C64.4001 220.9 97.3001 230.6 152.3 234.4C179 235.3 199.2 237.2 214.2 239.9C229.2 242.6 239.2 246 245.5 250C251.2 253.6 253.9 257.8 254.5 262.3C255.2 260.2 255.6 258.1 255.8 256C256.4 249 254.3 241.8 247.7 234.2C242 227.6 231.3 224.2 218 222.6C204.8 221 189.5 221.1 175.1 221.2C167.5 221.3 160.2 221.3 153.5 221.1C93.3001 217 57.5001 205 35.8001 190.8C16.1001 177.9 7.90008 163.3 3.60008 150.9ZM244.6 284.9C245 284.3 245.4 283.7 245.8 283.2C247 281.5 248.1 279.9 249 278.6C254.2 271.6 258 264.1 258.7 256.3C259.4 248.4 256.9 240.4 249.8 232.3C243.3 224.8 231.6 221.3 218.2 219.7C204.8 218 189.3 218.2 174.9 218.3H174.8C167.2 218.4 159.9 218.4 153.3 218.2C93.6001 214.1 58.5001 202.2 37.3001 188.3C16.2001 174.5 8.90008 158.7 5.00008 146.1C4.40008 142.7 4.20008 139.2 4.30008 135.7L4.60008 132.1L6.60008 122C13.4001 98.2 35.4001 74.5 67.9001 54.6C100.4 34.7 143.4 18.9 191.6 10.7C304.7 -8.49997 450.9 10.9 536.6 92.4C567.6 121.8 586.1 154.7 586.9 192.3C587.3 210.7 583.4 230.4 574.7 251.5C567.1 269.8 551.9 287 535.3 301.1C518.7 315.2 500.9 326 488.2 331.6C468.9 340.1 435.5 349.4 410.4 356.3C396.6 360.1 372.9 364.5 347 365.5C321 366.5 292.9 364 270.1 354.1C255.8 347.9 246.8 340.9 241.5 333.8C236.2 326.7 234.4 319.4 234.6 312.4C235.1 301.9 240 292.1 244.6 284.9ZM233.1 302.9C229.1 310.1 225.7 318 224.2 325.9C222.7 334 223.2 342 227 349.5C230.9 357 238.2 364.1 250.7 370C278 382.9 309.1 387.5 337.1 387.9C365.1 388.3 389.9 384.4 404.7 380.7C419.5 376.9 450.8 368.7 482.5 355.1C514.3 341.5 546.2 322.7 562.6 298C580.5 271.1 586.7 240.7 587.9 218.2C585.9 229.3 582.5 240.7 577.6 252.6C569.7 271.5 554.2 289.1 537.4 303.3C520.6 317.5 502.6 328.5 489.6 334.3C470.1 342.9 436.4 352.3 411.3 359.2C397.3 363 373.4 367.5 347.2 368.5C321 369.5 292.4 367 269 356.8C254.4 350.4 244.9 343.2 239.2 335.5C233.4 327.8 231.4 319.9 231.7 312.3C231.9 309 232.4 305.9 233.1 302.9ZM296.4 280.5C287.2 285.1 281.6 291.8 281.1 299.2C280.6 306.7 285.2 314 293.7 319.9C302.2 325.7 314.2 329.8 327.8 330.8C341.4 331.7 353.9 329.3 363.1 324.7C372.3 320.1 377.9 313.4 378.4 306C378.9 298.5 374.3 291.2 365.8 285.3C357.3 279.5 345.3 275.4 331.7 274.4C318 273.5 305.5 275.9 296.4 280.5ZM295 277.8C304.7 272.9 317.8 270.4 331.9 271.4C346 272.4 358.6 276.6 367.5 282.8C376.4 289 382 297.2 381.4 306.1C380.8 315 374.1 322.4 364.4 327.3C354.7 332.2 341.6 334.7 327.5 333.7C313.4 332.7 300.8 328.5 291.9 322.3C283 316.1 277.4 307.9 278 299C278.7 290.1 285.3 282.7 295 277.8Z" fill="#000F08"/>
<path fill-rule="evenodd" clip-rule="evenodd" d="M327.6 333.6C360.5 335.9 388.4 320.4 389.9 299.1C391.4 277.7 365.9 258.6 333 256.3C300.1 254 272.2 269.5 270.7 290.8C269.1 312.2 294.6 331.4 327.6 333.6ZM327.7 332.3C355.4 334.2 378.8 322.5 379.9 306.1C381 289.7 359.5 274.9 331.8 272.9C304.1 271 280.7 282.7 279.6 299.1C278.4 315.5 299.9 330.3 327.7 332.3Z" fill="#000F08"/>
</g>
<defs>
<linearGradient id="paint0_linear_59_77" x1="300.935" y1="2.92494" x2="289.6" y2="360.509" gradientUnits="userSpaceOnUse">
<stop stop-color="#E8B946"/>
<stop offset="1" stop-color="#FBC84C"/>
</linearGradient>
<radialGradient id="paint1_radial_59_77" cx="0" cy="0" r="1" gradientUnits="userSpaceOnUse" gradientTransform="translate(101.093 61.7251) rotate(49.7976) scale(46.9563 60.0003)">
<stop stop-color="#F7614F"/>
<stop offset="1" stop-color="#BF3A2A"/>
</radialGradient>
<radialGradient id="paint2_radial_59_77" cx="0" cy="0" r="1" gradientUnits="userSpaceOnUse" gradientTransform="translate(273.828 33.2393) rotate(41.0805) scale(78.2735 115.255)">
<stop offset="0.046875" stop-color="#6085C7"/>
<stop offset="1" stop-color="#234C94"/>
</radialGradient>
<radialGradient id="paint3_radial_59_77" cx="0" cy="0" r="1" gradientUnits="userSpaceOnUse" gradientTransform="translate(425.618 74.0884) rotate(46.218) scale(73.6479 93.4227)">
<stop stop-color="#6BDCAF"/>
<stop offset="1" stop-color="#4BAC86"/>
</radialGradient>
<radialGradient id="paint4_radial_59_77" cx="0" cy="0" r="1" gradientUnits="userSpaceOnUse" gradientTransform="translate(471.565 207.639) rotate(62.488) scale(76.8794 100.966)">
<stop stop-color="#FCBC71"/>
<stop offset="1" stop-color="#E98D38"/>
</radialGradient>
<clipPath id="clip0_59_77">
<rect width="592" height="398" fill="white"/>
</clipPath>
</defs>
</svg>
