<svg width="254" height="844" viewBox="0 0 254 844" fill="none" xmlns="http://www.w3.org/2000/svg">
<g clip-path="url(#clip0_59_2)">
<g opacity="0.2">
<path d="M76.3 727.4L108.2 503.9C112.9 502.9 117.7 502 122.5 501.2C128.8 500.1 135.2 499.2 141.6 498.4L108.6 729.2C100.9 728.7 92.4001 728.2 83.1001 727.9C80.8001 727.8 78.5 727.6 76.3 727.4Z" fill="#664006"/>
</g>
<path d="M52.7 843.9C79.4306 843.9 101.1 837.901 101.1 830.5C101.1 823.099 79.4306 817.1 52.7 817.1C25.9695 817.1 4.30005 823.099 4.30005 830.5C4.30005 837.901 25.9695 843.9 52.7 843.9Z" fill="#000F08"/>
<path d="M140.7 427.7L73.8 418.3L23.5999 774.3C22.5999 781.2 23.7999 788 26.6999 793.8C31.4999 803.5 40.8 810.8 52.3 812.4C53.5 812.6 54.5999 812.7 55.6999 812.7C72.7999 813.4 87.9999 801 90.3999 783.7L140.7 427.7Z" fill="url(#paint0_linear_59_2)"/>
<path d="M124.2 425.3L140.7 427.6L90.4999 783.6C88.7999 795.9 80.5999 805.7 69.8999 810.1L124.2 425.3Z" fill="#4F4649" fill-opacity="0.8"/>
<path fill-rule="evenodd" clip-rule="evenodd" d="M136.9 430.6L76.9 422.1L27.1 774.7C24.8 791.3 36.3 806.6 52.9 809C69.5 811.3 84.8 799.8 87.2 783.2L136.9 430.6ZM73.9 418.2L23.7 774.2C21.1 792.7 33.9 809.7 52.4 812.3C70.9 814.9 87.9001 802.1 90.5001 783.6L140.7 427.6L73.9 418.2Z" fill="#000F08"/>
<path d="M63.7 490.2L68.8999 453.2C83.4999 451.8 103.5 454.3 124.8 460.8C128.5 461.9 132 463.1 135.5 464.4L128.2 516.3C122.1 515.1 115.7 513.5 109.3 511.5C91 505.8 75 498.2 63.7 490.2Z" fill="#000F08"/>
<path d="M43.1 441C45.3 424 60.8 412.1 77.8 414.3L133.2 421.5C150.2 423.7 162.1 439.2 159.9 456.2L158.9 463.6C157 478.6 144 489.8 129 489.8C107.1 489.8 85 487 63.8 481.3C49.4 477.5 40.1 463.6 42 448.8L43.1 441Z" fill="white"/>
<path d="M43.1 441C45.3 424 60.8 412.1 77.8 414.3L133.2 421.5C150.2 423.7 162.1 439.2 159.9 456.2L158.9 463.6C157 478.6 144 489.8 129 489.8C107.1 489.8 85 487 63.8 481.3C49.4 477.5 40.1 463.6 42 448.8L43.1 441Z" fill="white"/>
<path d="M159.1 463.3C141.3 469.8 118.1 470.4 94.3999 463.8C73.7999 458.1 56.3999 447.8 44.3999 435.6C48.8999 421.6 62.7999 412.4 77.8999 414.3L133.3 421.5C150.3 423.7 162.2 439.2 160 456.2L159.1 463.3Z" fill="#000F08"/>
<path fill-rule="evenodd" clip-rule="evenodd" d="M132.6 424.4L77.3003 417.1C62.3003 415.1 48.5003 425.9 46.6003 441.3L45.6003 449.2C43.9003 462.5 52.1003 475 64.8003 478.4C85.6003 484 107.3 486.9 128.9 486.9C142.2 486.9 153.6 476.8 155.3 463.3L156.3 455.8C158.3 440.4 147.7 426.4 132.6 424.4ZM77.8003 413.6C60.9003 411.4 45.4003 423.6 43.2003 440.8L42.2003 448.7C40.3003 463.7 49.6003 477.9 63.9003 481.7C85.0003 487.4 107 490.3 128.9 490.3C143.9 490.3 156.8 478.9 158.7 463.7L159.7 456.2C161.9 438.9 150 423.1 133 420.9L77.8003 413.6Z" fill="#000F08"/>
<path d="M154.443 452.3C160.494 450.3 166.545 447.7 172.398 444.6C178.846 441.1 184.897 437.2 190.353 432.7C203.448 422.1 214.161 408.9 221.7 393.8C229.339 378.4 233.605 361.4 234.101 344C234.299 337.1 233.803 330 232.712 322.9C231.72 316.4 230.133 310.2 228.149 304.1C226.165 298 223.585 292.1 220.51 286.3C217.137 279.9 213.268 274 209.003 268.5C198.388 255 184.897 244 169.62 236.4C154.641 228.9 138.075 224.7 121.31 224.2C114.267 224 107.124 224.5 99.8828 225.6C93.3356 226.6 86.9867 228.2 80.9355 230.3C75.0827 232.3 69.2299 234.8 63.5755 237.9C57.3259 241.2 51.4731 245.1 46.1163 249.3C32.6251 260.1 21.6139 273.7 13.9755 289.2C6.53545 304.3 2.36905 321 1.97225 338C1.77385 345.1 2.26985 352.2 3.36105 359.5C4.35306 366 5.94026 372.3 7.92426 378.4C9.90826 384.4 12.4875 390.3 15.4635 396.1C18.8363 402.5 22.7051 408.5 27.0699 414C37.5851 427.3 50.8779 438.2 65.9563 445.8C81.2331 453.5 98.0971 457.8 115.358 458.2C122.203 458.4 129.147 457.9 136.19 456.8C142.44 455.7 148.59 454.2 154.443 452.3Z" fill="#E3E3E3"/>
<path d="M24.928 271.184C33.6531 261.484 44.1629 253.184 56.259 246.684C112.873 216.384 183.07 238.084 213.113 295.184C234.727 336.284 229.67 384.384 203.991 419.484C186.838 438.684 163.241 452.284 135.975 456.584C72.7177 466.684 13.3275 423.084 3.3135 359.284C-1.64395 326.884 6.982 295.584 24.928 271.184Z" fill="#CECECE"/>
<path fill-rule="evenodd" clip-rule="evenodd" d="M136.3 458C200.4 447.9 244.2 387.7 234 323.7C223.9 259.6 163.7 215.8 99.7001 226C35.6001 236.1 -8.19989 296.2 2.00011 360.3C12.1001 424.4 72.2001 468.2 136.3 458ZM230.6 324.2C240.4 386.4 197.9 444.8 135.7 454.6C73.5001 464.4 15.1001 421.9 5.30012 359.7C-4.49988 297.5 38.0001 239.1 100.2 229.3C162.4 219.6 220.8 262 230.6 324.2Z" fill="#000F08"/>
<path d="M59.2002 376.5C69.4002 378.6 79.9002 373.9 88.4002 365C96.9002 356.1 103.7 342.9 106.8 327.5C109.9 312.1 108.9 297.3 104.5 285.8C100.1 274.3 92.4002 265.9 82.2002 263.8C72.0002 261.7 61.5002 266.4 53.0002 275.3C44.5002 284.2 37.7002 297.4 34.6002 312.8C31.5002 328.2 32.5002 343 36.9002 354.5C41.2002 365.9 48.9002 374.4 59.2002 376.5Z" fill="white" stroke="#000F08" stroke-width="3"/>
<path d="M56.4002 372.9C75.5002 376.8 96.1002 355.4 102.2 325.1C107.2 300.5 101.2 277.6 88.6002 267.7C86.5002 266.5 84.3002 265.7 81.9002 265.2C62.8002 261.3 42.2002 282.7 36.1002 313C31.1002 337.6 37.1002 360.5 49.7002 370.4C51.7002 371.6 54.0002 372.4 56.4002 372.9Z" fill="#ECECEC"/>
<path d="M68.2002 375.1C82.1002 367.5 94.4002 348.7 99.3002 324.9C103.6 303.9 101 284 93.5002 271.2C90.2002 268.2 86.3002 266.1 82.0002 265.2C62.9002 261.3 42.3002 282.7 36.2002 313C30.0002 343.3 40.5002 371.1 59.7002 375C62.4002 375.6 65.3002 375.6 68.2002 375.1Z" fill="white"/>
<path d="M64.9001 320L82.3002 312.7C84.1002 292.5 78.5002 274.5 68.0002 265.8C52.9002 270.4 38.9002 288.9 33.9002 313C29.0002 337.1 34.6002 359.6 46.8002 369.8C60.1002 365.8 72.6001 350.9 78.7001 331L64.9001 320Z" fill="#000F08"/>
<path d="M133.7 388.7C143.9 390.8 154.4 386.1 162.9 377.2C171.4 368.3 178.2 355.1 181.3 339.7C184.4 324.3 183.4 309.5 179 298C174.6 286.5 166.9 278.1 156.7 276C146.5 273.9 136 278.6 127.5 287.5C119 296.4 112.2 309.6 109.1 325C106 340.4 107 355.2 111.4 366.7C115.7 378.2 123.4 386.6 133.7 388.7Z" fill="white" stroke="#000F08" stroke-width="3"/>
<path d="M130.8 385.2C149.9 389.1 170.5 367.7 176.6 337.4C181.6 312.8 175.6 289.9 163 280C160.9 278.8 158.7 278 156.3 277.5C137.2 273.6 116.6 295 110.5 325.3C105.5 349.9 111.5 372.8 124.1 382.7C126.2 383.8 128.5 384.7 130.8 385.2Z" fill="#ECECEC"/>
<path d="M142.6 387.4C156.5 379.8 168.8 361 173.7 337.2C178 316.2 175.4 296.3 167.9 283.5C164.6 280.5 160.7 278.4 156.4 277.5C137.3 273.6 116.7 295 110.6 325.3C104.4 355.6 114.9 383.4 134.1 387.3C136.9 387.9 139.8 387.9 142.6 387.4Z" fill="white"/>
<path d="M139.9 332.3L157.3 325C159.1 304.8 153.5 286.8 143 278.1C127.9 282.7 113.9 301.2 108.9 325.3C104 349.4 109.6 371.9 121.8 382.1C135.1 378.1 147.6 363.2 153.7 343.3L139.9 332.3Z" fill="#000F08"/>
<path d="M117.564 391.922C119.653 380.963 111.583 370.219 99.5389 367.924C87.4952 365.628 76.0388 372.651 73.9504 383.61C71.862 394.569 79.9323 405.313 91.976 407.608C104.02 409.904 115.476 402.881 117.564 391.922Z" fill="#000F08"/>
<path d="M92.7002 404.3C104.7 406.6 116 400.3 117.9 390.3C119.8 380.3 111.6 370.3 99.6002 368C87.6002 365.7 76.3002 372 74.4002 382C72.4002 392 80.6002 402 92.7002 404.3Z" fill="#EEC26C"/>
<path d="M74.2002 387.1C78.2002 380 87.7002 376 97.7002 377.9C107.7 379.8 115 387 116.1 395.1C112.1 402.2 102.6 406.2 92.6002 404.3C82.7002 402.4 75.4002 395.2 74.2002 387.1Z" fill="#D6A13B"/>
<path fill-rule="evenodd" clip-rule="evenodd" d="M93.3002 401C104.1 403.1 113.1 397.3 114.6 389.6C116.1 381.9 109.8 373.2 99.0002 371.2C88.2002 369.1 79.2002 374.9 77.7002 382.6C76.2002 390.3 82.5002 398.9 93.3002 401ZM92.7002 404.3C104.7 406.6 116 400.3 117.9 390.3C119.8 380.3 111.6 370.2 99.6002 368C87.6002 365.7 76.3002 372 74.4002 382C72.4002 392 80.6002 402 92.7002 404.3Z" fill="#000F08"/>
<path fill-rule="evenodd" clip-rule="evenodd" d="M131.5 420.2C132.3 420.6 132.7 421.7 132.2 422.5C129.4 427.8 125.2 432.1 120 435C114.8 437.9 108.9 439.3 103 438.9C97.1001 438.5 91.4001 436.5 86.6001 432.9C81.8001 429.4 78.1001 424.6 76.0001 419C75.7001 418.1 76.1001 417.1 77.0001 416.8C77.9001 416.5 78.9001 416.9 79.2001 417.8C81.1001 422.7 84.4001 427 88.6001 430.2C92.9001 433.3 97.9001 435.2 103.2 435.5C108.5 435.8 113.7 434.6 118.3 432C122.9 429.4 126.7 425.6 129.2 420.9C129.6 420 130.6 419.7 131.5 420.2Z" fill="#000F08"/>
<path fill-rule="evenodd" clip-rule="evenodd" d="M126.5 420.2C126 419.4 126.2 418.3 126.9 417.8C127.8 417.2 128.9 416.8 130 416.8C131.1 416.8 132.2 417.1 133.1 417.6C134 418.2 134.8 419 135.3 420C135.8 421 136 422.1 135.8 423.2C135.7 424.1 134.8 424.8 133.9 424.7C133 424.6 132.3 423.7 132.4 422.8C132.5 422.4 132.4 421.9 132.2 421.5C132 421.1 131.7 420.8 131.3 420.5C130.9 420.3 130.5 420.2 130 420.2C129.6 420.2 129.1 420.4 128.8 420.6C128.1 421.2 127 421 126.5 420.2Z" fill="#000F08"/>
<path fill-rule="evenodd" clip-rule="evenodd" d="M73.7002 420.8C72.8002 420.7 72.1002 419.9 72.2002 418.9C72.3002 417.8 72.7002 416.8 73.4002 415.9C74.1002 415 75.0002 414.4 76.1002 414C77.2002 413.6 78.3002 413.6 79.4002 413.9C80.5002 414.2 81.4002 414.8 82.2002 415.6C82.8002 416.3 82.8002 417.4 82.1002 418C81.4002 418.6 80.3002 418.6 79.7002 417.9C79.4002 417.6 79.0002 417.3 78.6002 417.2C78.2002 417.1 77.7002 417.1 77.3002 417.2C76.9002 417.3 76.5002 417.6 76.2002 417.9C75.9002 418.2 75.7002 418.7 75.7002 419.1C75.5002 420.3 74.6002 420.9 73.7002 420.8Z" fill="#000F08"/>
<path d="M238.5 238.8C238 240.9 235.6 243 230.7 244.5C225.9 246 219.1 246.8 210.8 246.8C194.2 246.8 172 243.8 148.2 237.7C124.3 231.6 103.4 223.6 88.9 215.6C81.6 211.6 76.1 207.7 72.5 204C68.9 200.3 67.8 197.4 68.4 195.2C68.9 193.1 71.3 191 76.2 189.5C81 188 87.8001 187.2 96.1001 187.2C112.7 187.2 134.9 190.2 158.7 196.3C182.6 202.4 203.5 210.4 218 218.4C225.3 222.4 230.8 226.3 234.4 230C238 233.7 239.1 236.7 238.5 238.8Z" fill="#000F08" stroke="#000F08" stroke-width="3.6546"/>
<path d="M237.4 127.9C268 182.2 235 246.6 202.3 257L91.7002 221C81.6002 200.9 62.5002 148.5 74.7002 102.4C91.7002 37.9 149.2 12.3 195.8 4.60002C212.5 1.80002 221.9 22 217.8 39.5C213.1 60.2 215.2 88.5 237.4 127.9Z" fill="url(#paint1_linear_59_2)"/>
<path d="M81.9001 86.8C95.9001 89.7 110.3 88.7 124.6 87.7C139.5 86.7 154.4 85.7 168.8 89C183.3 92.3 197.3 99.9 211.3 107.4C218.8 111.4 226.3 115.5 233.8 118.9C215.3 82.9 212.9 56.6 218 37.1C222.5 19.7 214.7 -0.200015 198 2.59999C155.1 9.69999 102.6 32.3 81.9001 86.8Z" fill="#F8B265"/>
<path d="M117.7 36.6C118 36.6 118.3 36.6 118.5 36.6C132.9 36.5 148.3 46.1 163.6 55.7C178.9 65.3 194.3 74.9 208.7 74.8C211.6 74.8 214.4 74.4 217.3 73.7C214.5 58.9 215.3 46.5 217.9 36C222.2 18.5 213 -1.39998 196.3 1.60002C170.3 6.20002 140.9 16.6 117.7 36.6Z" fill="#EA5847"/>
<g opacity="0.13">
<path d="M91.0001 220L107.4 221.9C99.9001 182.8 104.6 49.3 211 7.39999C207.3 4.19999 202.5 2.59999 196.9 3.49999C150 11.4 92.2001 37.3 75.0001 102.3C63.0001 147.6 80.8001 198.8 91.0001 220Z" fill="#221006"/>
</g>
<path fill-rule="evenodd" clip-rule="evenodd" d="M212.5 11.9C216.3 18 217.8 26.7 215.8 35C210.5 57.6 212.8 87.9 237.7 129.2C253.8 155.9 251.8 185.1 241.6 209.3C231.5 233.4 218.3 244 202.6 250.4L98.5001 223C93.1001 212.9 84.0001 203.8 78.7001 182.5C73.3001 160.7 70.6001 135.5 75.7001 111.6C90.0001 44.1 148 14.6 195.3 4.10002C202.8 2.40002 208.7 5.90002 212.5 11.9ZM215.3 10C210.8 2.80002 203.4 -1.49998 194.4 0.500022C146.7 11.1 87.1001 41.2 72.4001 110.6C67.2001 135.3 70.0001 161.1 75.5001 183.3C81.0001 205.4 90.5001 215.2 96.0001 225.5L96.4001 226.2L203.1 254.2L203.6 254C220.4 247.4 234.4 235.9 244.8 211C255.3 186 257.6 155.4 240.6 127.3C216.1 86.8 214.2 57.5 219.2 36.1C221.3 26.8 219.7 17 215.3 10Z" fill="#000F08"/>
<path d="M90.8001 205L93.8001 214.5L98.2001 210.4L90.8001 190.8L86.7001 177.8L83.6001 161.5L84.2001 170.2C85.0001 182.1 87.2001 193.7 90.8001 205Z" fill="#000F08"/>
<path d="M125.5 231.5L126.3 234.5L134 231.5C130.7 226.2 128.1 220.3 126.9 214.2C125.7 208 124.7 201.7 124.1 195.4L123.9 193.2L123.6 200.5C122.9 215.1 121.9 217.1 125.5 231.5Z" fill="#000F08"/>
<path d="M185.5 216.2L184.7 219C181.7 229.1 179.9 234.6 175.4 242C173.4 245.2 169.1 245.9 166.1 243.5C171.1 239.1 175.7 234.1 179.1 228.4C181.2 224.9 183.1 221.3 184.9 217.7L185.5 216.2Z" fill="#000F08"/>
<path d="M207.5 239L217.6 230.5C221.1 226.6 224.1 222.3 226.5 217.6C226.5 217.5 226.6 217.6 226.6 217.6C225 225.6 221.4 233.2 216.3 239.6C215.4 240.7 213.8 241.1 212.5 240.7L207.5 239Z" fill="#000F08"/>
<path d="M55.9001 243.7L66.6002 197.2C67.1002 195.2 69.3001 194 70.9001 195.3C77.0001 200.1 81.8002 210.1 142.8 226.2C198.6 241 220.6 240.4 236.6 238.7C239.2 238.4 241.2 241 240.2 243.4L221.6 290L212.2 279.4C173.2 235.1 110.2 220.7 55.9001 243.7Z" fill="#CECECE"/>
<path d="M211.5 278.6C199.4 265.1 185.1 254.4 169.5 246.8L146.1 227C199.6 240.9 221 240.4 236.7 238.6C239.3 238.3 241.3 240.9 240.3 243.3L222.8 287L211.5 278.6Z" fill="#E3E3E3"/>
<path fill-rule="evenodd" clip-rule="evenodd" d="M69.1 196.6C68.8 196.7 68.5 197.1 68.3 197.6L58.3 240.9C112.6 219.4 174.7 234.2 213.5 278.2L221 286.7L238.7 242.7C239.2 241.5 238.2 240.2 236.9 240.3C220.6 242.1 198.4 242.6 142.5 227.8C112 219.7 95.4 213.2 85.6 208C78.1 204 74.6 200.8 72.1 198.5C71.3 197.8 70.6 197.2 70 196.6C69.6 196.4 69.4 196.4 69.1 196.6ZM54.2 243.3C54.1 243.6 54.1 244 54.3 244.4C54.7 245.3 55.7 245.7 56.6 245.3C110.3 222.6 172.4 236.7 210.9 280.5L222.1 293.2L241.9 244C243.4 240.3 240.4 236.5 236.5 236.9C220.8 238.6 199 239.2 143.3 224.5C112.9 216.4 96.6 210 87.1 205C80.1 201.3 76.9 198.4 74.4 196.1C73.5 195.3 72.8 194.6 71.9 194C70.5 192.9 68.9 192.9 67.5 193.5C66.2 194.1 65.2 195.4 64.8 196.9L54.2 243.3Z" fill="#000F08"/>
</g>
<defs>
<linearGradient id="paint0_linear_59_2" x1="98.8058" y1="482.371" x2="52.5688" y2="812.369" gradientUnits="userSpaceOnUse">
<stop stop-color="#3A3335"/>
<stop offset="1" stop-color="#494445"/>
</linearGradient>
<linearGradient id="paint1_linear_59_2" x1="138.123" y1="229.586" x2="176.619" y2="94.8725" gradientUnits="userSpaceOnUse">
<stop stop-color="#FFD74A"/>
<stop offset="0.0001" stop-color="#F5B440"/>
<stop offset="1" stop-color="#FFDA56"/>
</linearGradient>
<clipPath id="clip0_59_2">
<rect width="254" height="844" fill="white"/>
</clipPath>
</defs>
</svg>
